<svg width="28" height="28" viewBox="0 0 28 28" fill="none" xmlns="http://www.w3.org/2000/svg">
<path d="M10.2698 27.0713L12.1371 17.7348L4.66797 14.9339L17.739 0.929199L15.8717 10.2657L23.3409 13.0666L10.2698 27.0713Z" fill="white"/>
<path d="M24.2478 12.8528C24.2124 12.7032 24.1406 12.5645 24.0389 12.4493C23.9371 12.334 23.8084 12.2458 23.6642 12.1922L16.9408 9.67023L18.6517 1.1122C18.6905 0.913357 18.6635 0.707302 18.5748 0.525147C18.4862 0.342982 18.3407 0.194594 18.1604 0.102367C17.98 0.0101405 17.7746 -0.0209195 17.575 0.0138763C17.3754 0.0486709 17.1925 0.147432 17.054 0.295261L3.98298 14.2999C3.87683 14.4117 3.80002 14.5482 3.75946 14.697C3.71888 14.8458 3.7158 15.0023 3.75047 15.1526C3.78514 15.3028 3.85651 15.4421 3.95818 15.5581C4.05985 15.6741 4.18865 15.7631 4.3331 15.8171L11.0588 18.3391L9.35261 26.8878C9.31388 27.0867 9.34086 27.2927 9.42949 27.4748C9.51812 27.657 9.66361 27.8054 9.84398 27.8977C10.0243 27.9899 10.2298 28.0209 10.4294 27.9861C10.629 27.9514 10.8118 27.8526 10.9503 27.7048L24.0213 13.7001C24.1256 13.5882 24.2007 13.4524 24.2403 13.3047C24.2797 13.1569 24.2823 13.0017 24.2478 12.8528ZM11.8279 24.0367L13.0498 17.9237C13.0936 17.7068 13.0589 17.4816 12.952 17.288C12.8451 17.0942 12.6731 16.9448 12.4663 16.8663L6.29959 14.5497L16.1752 3.96915L14.9545 10.0822C14.9107 10.299 14.9454 10.5243 15.0523 10.7179C15.1592 10.9115 15.3313 11.061 15.538 11.1396L21.7001 13.4503L11.8279 24.0367Z" fill="#B3B3B3"/>
</svg>
