<svg width="28" height="28" viewBox="0 0 28 28" fill="none" xmlns="http://www.w3.org/2000/svg">
<path fill-rule="evenodd" clip-rule="evenodd" d="M3.65 0C3.01488 0 2.5 0.522334 2.5 1.16667V26.8333C2.5 27.4777 3.01488 28 3.65 28H24.35C24.9851 28 25.5 27.4777 25.5 26.8333V7C25.5 6.69058 25.3788 6.39383 25.1632 6.17504L19.4132 0.341708C19.1975 0.122916 18.905 0 18.6 0H3.65ZM17.45 8.16667V2.33333L23.2 8.16667H17.45ZM15.2414 14.0059H17.5883L15.1735 18.0893L17.5885 22.1726H15.2414L13.9999 20.0734L12.7583 22.1726H10.4114L12.8264 18.0893L10.4115 14.0059H12.7585L13.9999 16.1051L15.2414 14.0059ZM5.74091 16.0476H3.65V14.0059H9.92272V16.0476H7.83181V22.1726H5.74091V16.0476ZM18.0766 16.0476H20.1676V22.1726H22.2585V16.0476H24.3494V14.0059H18.0766V16.0476Z" fill="white"/>
</svg>
