<svg width="29" height="19" viewBox="0 0 29 19" fill="none" xmlns="http://www.w3.org/2000/svg">
<g clip-path="url(#clip0_2522_1862)">
<path fill-rule="evenodd" clip-rule="evenodd" d="M0 4.13338C0 2.65726 1.15716 1.5 2.63332 1.5H13.3667C14.8529 1.5 16 2.73411 16 4.13338V14.8667C16 16.3429 14.8428 17.5 13.3667 17.5H2.63332C1.15719 17.5 0 16.3429 0 14.8667V4.13338ZM3.78915 6.28034C3.78915 5.70675 4.27339 5.22249 4.84693 5.22249C5.42047 5.22249 5.90473 5.70676 5.90473 6.28034V7.3381H4.84693C4.27335 7.3381 3.78915 6.85389 3.78915 6.28034ZM6.90473 6.28034V7.3381H9.16193V6.28034C9.16193 5.15452 10.0939 4.22249 11.2197 4.22249C12.3456 4.22249 13.2775 5.15451 13.2775 6.28034C13.2775 7.40621 12.3455 8.33813 11.2197 8.33813H10.1619V10.5953H11.2197C12.3456 10.5953 13.2775 11.5273 13.2775 12.6531C13.2775 13.779 12.3455 14.7109 11.2197 14.7109C10.0939 14.7109 9.16193 13.779 9.16193 12.6531V11.5953H6.90473V12.6531C6.90473 13.779 5.97276 14.7109 4.84693 14.7109C3.72109 14.7109 2.78915 13.779 2.78915 12.6531C2.78915 11.5273 3.72105 10.5953 4.84693 10.5953H5.90473V8.33813H4.84693C3.72109 8.33813 2.78915 7.4062 2.78915 6.28034C2.78915 5.15452 3.72105 4.22249 4.84693 4.22249C5.97279 4.22249 6.90473 5.15451 6.90473 6.28034ZM6.90473 10.5953V8.33813H9.16193V10.5953H6.90473ZM11.2197 7.3381H10.1619V6.28034C10.1619 5.70675 10.6462 5.22249 11.2197 5.22249C11.7933 5.22249 12.2775 5.70676 12.2775 6.28034C12.2775 6.85389 11.7933 7.3381 11.2197 7.3381ZM10.1619 12.6531V11.5953H11.2197C11.7933 11.5953 12.2775 12.0795 12.2775 12.6531C12.2775 13.2267 11.7933 13.7109 11.2197 13.7109C10.6461 13.7109 10.1619 13.2267 10.1619 12.6531ZM4.84693 11.5953H5.90473V12.6531C5.90473 13.2267 5.42051 13.7109 4.84693 13.7109C4.27335 13.7109 3.78915 13.2267 3.78915 12.6531C3.78915 12.0795 4.27339 11.5953 4.84693 11.5953Z" fill="currentColor"/>
</g>
<path d="M22.7045 12.0398L22.6932 9.96591H22.9886L26.4659 6.27273H28.5L24.5341 10.4773H24.267L22.7045 12.0398ZM21.142 15V3.36364H22.8409V15H21.142ZM26.6534 15L23.5284 10.8523L24.6989 9.66477L28.7386 15H26.6534Z" fill="currentColor"/>
<defs>
<clipPath id="clip0_2522_1862">
<rect width="16" height="16" fill="white" transform="translate(0 1.5)"/>
</clipPath>
</defs>
</svg>
