<svg width="100%" height="100%" viewBox="0 0 19 20" fill="none" xmlns="http://www.w3.org/2000/svg">
<path d="M14.9922 1.12402L14.1328 8H18C18.3897 8 18.7436 8.2265 18.9072 8.5801C19.0708 8.9339 19.0142 9.3505 18.7617 9.6475L10.2617 19.6475L9.9629 20H7.84668L8.8467 13H6C5.62933 13 5.28941 12.7945 5.11621 12.4668C4.94314 12.1391 4.96507 11.7427 5.17383 11.4365L12.6738 0.43652L12.9717 0H15.1328L14.9922 1.12402ZM6 17H1V15H6V17ZM7.89258 11H10C10.2899 11 10.5659 11.1257 10.7559 11.3447C10.9457 11.5637 11.0312 11.8547 10.9902 12.1416L10.3779 16.4219L15.8379 10H13C12.7132 10 12.4398 9.8771 12.25 9.6621C12.0602 9.4471 11.9722 9.1606 12.0078 8.876L12.6064 4.08496L7.89258 11ZM3 11H0V9H3V11ZM7 5H1V3H7V5Z" fill="black"/>
</svg>
