<svg width="100%" height="100%" viewBox="0 0 19 19" fill="none" xmlns="http://www.w3.org/2000/svg">
<path d="M10.2686 8.72273C8.73136 8.21318 7.98864 7.89364 7.98864 7.08182C7.98864 6.20091 8.94727 5.88136 9.55182 5.88136C10.6832 5.88136 11.0977 6.73636 11.1927 7.03864L12.5573 6.46C12.4277 6.07136 11.8491 4.80182 10.3636 4.52545V3.45455H8.63636V4.54273C6.49455 5.02636 6.48591 7.01273 6.48591 7.09909C6.48591 9.05955 8.42909 9.61227 9.37909 9.95773C10.7436 10.4414 11.3482 10.8818 11.3482 11.7109C11.3482 12.6868 10.4414 13.1014 9.63818 13.1014C8.06636 13.1014 7.61727 11.4864 7.56545 11.2964L6.13182 11.875C6.67591 13.7664 8.10091 14.2759 8.63636 14.4314V15.5455H10.3636V14.4745C10.7091 14.3968 12.8682 13.965 12.8682 11.6936C12.8682 10.4932 12.3414 9.43955 10.2686 8.72273ZM1.72727 17.2727H0V12.0909H5.18182V13.8182H3.04C4.43045 15.8995 6.80545 17.2727 9.5 17.2727C13.7923 17.2727 17.2727 13.7923 17.2727 9.5H19C19 14.7509 14.7509 19 9.5 19C6.28727 19 3.44591 17.4023 1.72727 14.9668V17.2727ZM0 9.5C0 4.24909 4.24909 0 9.5 0C12.7127 0 15.5541 1.59773 17.2727 4.03318V1.72727H19V6.90909H13.8182V5.18182H15.96C14.5695 3.10045 12.1945 1.72727 9.5 1.72727C5.20773 1.72727 1.72727 5.20773 1.72727 9.5H0Z" fill="black"/>
</svg>
