<svg width="28" height="28" viewBox="0 0 28 28" fill="none" xmlns="http://www.w3.org/2000/svg">
<path fill-rule="evenodd" clip-rule="evenodd" d="M2.5 12C2.5 11.1716 3.17158 10.5 4 10.5H24C24.8284 10.5 25.5 11.1716 25.5 12C25.5 12.8284 24.8284 13.5 24 13.5H19.6875L15.5 18.2857V25C15.5 25.8284 14.8284 26.5 14 26.5C13.1716 26.5 12.5 25.8284 12.5 25V18.2857L8.3125 13.5H4C3.17158 13.5 2.5 12.8284 2.5 12Z" fill="white"/>
<path fill-rule="evenodd" clip-rule="evenodd" d="M14 4C8.47716 4 4 8.47716 4 14C4 19.5228 8.47716 24 14 24C19.5228 24 24 19.5228 24 14C24 8.47716 19.5228 4 14 4ZM0 14C0 6.26802 6.26802 0 14 0C21.732 0 28 6.26802 28 14C28 21.732 21.732 28 14 28C6.26802 28 0 21.732 0 14Z" fill="#B3B3B3"/>
</svg>
