<svg width="400" height="400" viewBox="0 0 400 400" fill="none" xmlns="http://www.w3.org/2000/svg">
<path d="M251.231 249.95C157.487 343.73 68.0688 374.032 47.8786 352.391C42.1091 346.619 42.1091 337.963 42.1091 330.749C42.1091 291.793 79.6078 216.771 158.93 143.183C167.584 135.969 167.584 122.983 160.373 114.327C153.16 105.671 140.179 105.671 131.527 112.885C112.779 130.197 96.9142 147.511 82.4911 164.826C42.109 102.788 33.4554 58.0588 46.4341 43.6324C62.2988 27.7617 121.431 40.7477 190.659 92.687C212.293 108.558 233.925 127.313 254.117 147.514C269.981 163.385 285.847 180.699 298.828 198.012C284.407 216.769 268.541 232.64 251.234 249.953L251.231 249.95ZM353.631 46.5207C368.053 60.9488 357.959 107.12 320.46 166.27C307.479 150.399 294.5 135.972 280.077 120.101C265.655 105.673 249.791 91.2443 233.927 78.2604C294.503 39.3048 339.21 32.0926 353.631 46.5207ZM382.477 17.6641C349.306 -15.5198 280.076 -1.09121 200.754 53.735C121.431 -1.09281 50.7591 -15.5193 17.5915 17.6641C-15.5797 50.8481 -1.15667 118.66 55.0901 199.457C21.9189 247.068 1.72685 293.237 1.72685 330.75C1.72685 356.72 11.8221 372.591 19.0336 381.247C32.0146 394.232 47.8791 400.002 68.0693 400.002C128.645 400.002 213.733 346.618 280.079 280.253C294.501 265.825 308.924 249.953 320.461 234.083C359.4 294.683 368.055 339.406 353.632 353.832C342.095 365.373 308.922 361.047 269.983 340.846C259.888 336.517 248.349 339.405 242.581 349.503C236.813 359.602 241.139 371.146 251.235 376.915C281.522 392.786 310.367 400 332.002 400C352.194 400 368.058 394.228 381.037 381.245C414.208 348.061 399.786 278.805 344.98 199.452C395.461 128.757 418.533 55.1766 382.48 17.6636L382.477 17.6641Z" fill="url(#paint0_radial_329_1038)"/>
<path d="M253.125 206.251C253.125 239.044 226.544 265.626 193.751 265.626C160.957 265.626 134.375 239.044 134.375 206.251C134.375 173.457 160.957 146.875 193.751 146.875C226.544 146.875 253.125 173.457 253.125 206.251Z" fill="url(#paint1_radial_329_1038)"/>
<defs>
<radialGradient id="paint0_radial_329_1038" cx="0" cy="0" r="1" gradientUnits="userSpaceOnUse" gradientTransform="translate(204.076 200.001) rotate(-90) scale(218.751 231.692)">
<stop stop-color="#FF4747"/>
<stop offset="1" stop-color="#6F1400"/>
</radialGradient>
<radialGradient id="paint1_radial_329_1038" cx="0" cy="0" r="1" gradientUnits="userSpaceOnUse" gradientTransform="translate(193.75 206.251) rotate(90) scale(59.3752 59.375)">
<stop stop-color="#FF7474"/>
<stop offset="1" stop-color="#FC0000"/>
</radialGradient>
</defs>
</svg>
