<svg width="48" height="48" viewBox="0 0 48 48" fill="none" xmlns="http://www.w3.org/2000/svg">
<path fill-rule="evenodd" clip-rule="evenodd" d="M24 4C12.3975 4 3 13.3975 3 25C3 34.2925 9.01125 42.1413 17.3587 44.9238C18.4087 45.1075 18.8025 44.4775 18.8025 43.9263C18.8025 43.4275 18.7763 41.7737 18.7763 40.015C13.5 40.9862 12.135 38.7288 11.715 37.5475C11.4788 36.9438 10.455 35.08 9.5625 34.5812C8.8275 34.1875 7.7775 33.2163 9.53625 33.19C11.19 33.1638 12.3713 34.7125 12.765 35.3425C14.655 38.5187 17.6738 37.6263 18.8813 37.075C19.065 35.71 19.6162 34.7912 20.22 34.2662C15.5475 33.7412 10.665 31.93 10.665 23.8975C10.665 21.6137 11.4788 19.7237 12.8175 18.2537C12.6075 17.7287 11.8725 15.5763 13.0275 12.6888C13.0275 12.6888 14.7862 12.1375 18.8025 14.8413C20.4825 14.3688 22.2675 14.1325 24.0525 14.1325C25.8375 14.1325 27.6225 14.3688 29.3025 14.8413C33.3188 12.1113 35.0775 12.6888 35.0775 12.6888C36.2325 15.5763 35.4975 17.7287 35.2875 18.2537C36.6263 19.7237 37.44 21.5875 37.44 23.8975C37.44 31.9562 32.5313 33.7412 27.8588 34.2662C28.62 34.9225 29.2763 36.1825 29.2763 38.1512C29.2763 40.96 29.25 43.2175 29.25 43.9263C29.25 44.4775 29.6438 45.1338 30.6938 44.9238C34.8626 43.5164 38.4852 40.8371 41.0516 37.263C43.6179 33.6889 44.9989 29.4 45 25C45 13.3975 35.6025 4 24 4Z" fill="currentColor"/>
</svg>
