<svg width="24" height="24" viewBox="0 0 24 24" fill="none" xmlns="http://www.w3.org/2000/svg"><path fill-rule="evenodd" clip-rule="evenodd" d="M12.001 1C9.01358 1 8.63866 1.01306 7.46532 1.06646C6.29426 1.12008 5.49492 1.30548 4.7955 1.57751C4.07201 1.85847 3.4583 2.2343 2.84687 2.84596C2.23499 3.45738 1.85915 4.07109 1.57728 4.79435C1.30457 5.494 1.11894 6.29358 1.06623 7.46417C1.01375 8.63752 1 9.01267 1 12.0001C1 14.9876 1.01329 15.3613 1.06646 16.5347C1.12031 17.7057 1.30571 18.5051 1.57751 19.2045C1.8587 19.928 2.23453 20.5417 2.84619 21.1531C3.45738 21.765 4.07109 22.1418 4.79412 22.4227C5.49401 22.6947 6.29358 22.8801 7.4644 22.9338C8.63775 22.9872 9.01244 23.0002 11.9997 23.0002C14.9873 23.0002 15.3611 22.9872 16.5345 22.9338C17.7055 22.8801 18.5058 22.6947 19.2056 22.4227C19.9289 22.1418 20.5417 21.765 21.1529 21.1531C21.7648 20.5417 22.1406 19.928 22.4225 19.2047C22.6929 18.5051 22.8785 17.7055 22.9335 16.5349C22.9862 15.3616 23 14.9876 23 12.0001C23 9.01267 22.9862 8.63775 22.9335 7.4644C22.8785 6.29335 22.6929 5.494 22.4225 4.79458C22.1406 4.07109 21.7648 3.45738 21.1529 2.84596C20.541 2.23408 19.9291 1.85824 19.205 1.57751C18.5037 1.30548 17.7039 1.12008 16.5328 1.06646C15.3595 1.01306 14.986 1 11.9976 1H12.001ZM11.014 2.98148C11.3069 2.98102 11.6337 2.98148 12.0008 2.98148C14.9379 2.98148 15.286 2.99202 16.4458 3.04473C17.5183 3.09377 18.1004 3.27298 18.4881 3.42355C19.0015 3.62293 19.3675 3.86126 19.7522 4.24627C20.1372 4.63127 20.3756 4.99794 20.5754 5.51128C20.726 5.89857 20.9054 6.48066 20.9542 7.55317C21.0069 8.71277 21.0184 9.06111 21.0184 11.9968C21.0184 14.9324 21.0069 15.2808 20.9542 16.4403C20.9052 17.5129 20.726 18.0949 20.5754 18.4822C20.376 18.9956 20.1372 19.3611 19.7522 19.7459C19.3672 20.1309 19.0017 20.3692 18.4881 20.5686C18.1009 20.7199 17.5183 20.8986 16.4458 20.9476C15.2862 21.0004 14.9379 21.0118 12.0008 21.0118C9.06357 21.0118 8.71546 21.0004 7.55587 20.9476C6.48336 20.8981 5.90127 20.7189 5.51328 20.5684C4.99994 20.369 4.63327 20.1307 4.24827 19.7457C3.86327 19.3607 3.62493 18.9949 3.4251 18.4813C3.27453 18.094 3.09509 17.5119 3.04628 16.4394C2.99357 15.2798 2.98303 14.9315 2.98303 11.994C2.98303 9.05652 2.99357 8.71002 3.04628 7.55042C3.09532 6.47791 3.27453 5.89582 3.4251 5.50807C3.62447 4.99473 3.86327 4.62806 4.24827 4.24306C4.63327 3.85805 4.99994 3.61972 5.51328 3.41988C5.90104 3.26863 6.48336 3.08988 7.55587 3.04061C8.57063 2.99477 8.96388 2.98102 11.014 2.97873V2.98148ZM17.8738 4.80753C17.145 4.80753 16.5538 5.3981 16.5538 6.12708C16.5538 6.85584 17.145 7.4471 17.8738 7.4471C18.6025 7.4471 19.1938 6.85584 19.1938 6.12708C19.1938 5.39833 18.6025 4.80707 17.8738 4.80707V4.80753ZM12.0008 6.35128C8.88115 6.35128 6.35181 8.88061 6.35181 12.0003C6.35181 15.12 8.88115 17.6482 12.0008 17.6482C15.1205 17.6482 17.6489 15.12 17.6489 12.0003C17.6489 8.88061 15.1203 6.35128 12.0006 6.35128H12.0008ZM12.0005 8.33216C14.0254 8.33216 15.6672 9.97369 15.6672 11.9989C15.6672 14.0238 14.0254 15.6656 12.0005 15.6656C9.9753 15.6656 8.33377 14.0238 8.33377 11.9989C8.33377 9.97369 9.9753 8.33216 12.0005 8.33216V8.33216Z" fill="CurrentColor"></path></svg>
