<svg xmlns="http://www.w3.org/2000/svg" width="480" height="300" fill="none"><path fill="#000" d="M0 0h480v300H0z"/><path fill="#fff" fill-rule="evenodd" d="M318.166 95.558H164.983v118.955h153.183V95.558Zm-7.295 7.295H172.278v104.366h138.593V102.853Z" clip-rule="evenodd"/><path fill="#fff" fill-rule="evenodd" d="M310.501 74.313H172.072v21.374h138.429V74.314ZM164.786 67v36h153V67h-153Z" clip-rule="evenodd"/><path fill="#fff" d="M201.786 56h7v29h-7zM274.786 56h7v29h-7zM219.078 175c1.499 0 2.879.333 4.14 1 1.278.65 2.301 1.65 3.068 3 .784 1.35 1.175 3.017 1.175 5s-.391 3.65-1.175 5c-.767 1.35-1.79 2.358-3.068 3.025-1.261.65-2.641.975-4.14.975h-13.292v-18h13.292Zm-2.556 12.75c.886 0 1.618-.058 2.198-.175.579-.133 1.073-.467 1.482-1 .409-.55.614-1.408.614-2.575 0-1.167-.205-2.017-.614-2.55-.409-.55-.903-.883-1.482-1-.58-.133-1.312-.2-2.198-.2h-4.346v7.5h4.346ZM253.933 193h-6.799l-1.508-3.15h-10.122l-1.508 3.15h-6.799l8.818-18h9.1l8.818 18Zm-13.368-13.7-2.914 6.05h5.828l-2.914-6.05ZM262.699 181.75l5.164-6.75h7.923l-9.892 12v6h-6.39v-6l-9.892-12h7.924l5.163 6.75Z"/><path fill="#fff" stroke="#000" d="M231.618 138.327c1.724-.846 3.08-1.945 4.043-3.305 1.155-1.632 1.72-3.603 1.72-5.888 0-4.423-2.012-7.83-5.975-10.175-3.93-2.325-9.502-3.459-16.66-3.459-8.324 0-14.745 1.356-19.202 4.131-4.49 2.795-7.035 7.139-7.652 12.961l-.058.553h15.531v-.5c0-2.126.745-3.556 2.17-4.414l.003-.002c1.529-.935 4.008-1.44 7.52-1.44 2.964 0 4.964.347 6.091.967l.009.005.008.004c.584.293.992.644 1.256 1.041.261.393.399.859.399 1.418 0 .852-.26 1.475-.74 1.928-.498.429-1.466.812-3.011 1.09-1.524.275-3.701.416-6.546.416h-.5v9.474h.5c3.129 0 5.466.141 7.031.416l.012.002c1.584.238 2.553.643 3.038 1.129l.011.012.013.011c.507.445.795 1.118.795 2.106 0 1.267-.542 2.192-1.674 2.831-1.125.619-3.221.966-6.391.966-3.636 0-6.204-.464-7.778-1.329-1.482-.834-2.216-2.115-2.216-3.921v-.5h-16.133l.057.552c.409 3.942 1.58 7.204 3.539 9.755h-.001l.006.008c2.008 2.518 4.959 4.361 8.808 5.552 3.846 1.191 8.827 1.778 14.924 1.778 7.441 0 13.217-1.215 17.271-3.706 4.084-2.509 6.149-6.138 6.149-10.836 0-2.371-.619-4.421-1.878-6.123-1.065-1.441-2.57-2.606-4.489-3.508Zm13.88 12.906.002.002c2.064 3.562 5.096 6.331 9.076 8.308 3.985 1.978 8.749 2.957 14.275 2.957 5.487 0 10.231-.979 14.216-2.957l.003-.002c3.978-2.017 7.009-4.804 9.072-8.365 2.101-3.556 3.144-7.64 3.144-12.237 0-4.557-1.044-8.62-3.144-12.175-2.064-3.562-5.096-6.33-9.075-8.307-3.985-1.978-8.729-2.957-14.216-2.957-5.526 0-10.29.979-14.275 2.957-3.98 1.977-7.012 4.745-9.076 8.307-2.061 3.516-3.083 7.58-3.083 12.175 0 4.597 1.023 8.699 3.081 12.294Zm31.021-19.991.008.008c1.76 1.692 2.681 4.225 2.681 7.689 0 3.507-.921 6.082-2.685 7.815-1.771 1.739-4.303 2.641-7.672 2.641-3.368 0-5.901-.902-7.671-2.641-1.764-1.733-2.685-4.308-2.685-7.815 0-3.508.902-6.061 2.623-7.751 1.769-1.699 4.321-2.583 7.733-2.583s5.94.904 7.668 2.637Z"/><path fill="#414141" fill-rule="evenodd" d="M164.983 195.635C139.318 200.686 123 208.27 123 216.748c0 15.21 52.521 27.54 117.31 27.54s117.31-12.33 117.31-27.54c0-8.196-15.251-15.556-39.454-20.601v2.086c11.069 3.496 17.577 7.77 17.577 12.385 0 11.824-42.725 21.41-95.43 21.41-52.704 0-95.43-9.586-95.43-21.41 0-4.955 7.504-9.518 20.1-13.146v-1.837Z" clip-rule="evenodd"/></svg>
