<svg xmlns="http://www.w3.org/2000/svg" width="480" height="300" fill="none"><path fill="#000" d="M0 0h480v300H0z"/><g clip-path="url(#a)"><path fill="#000" d="M388 54H92v169h296V54Z"/><path fill="#fff" d="M102.571 135.683c4.282 0 7.753-3.468 7.753-7.746 0-4.277-3.471-7.745-7.753-7.745-4.281 0-7.752 3.468-7.752 7.745 0 4.278 3.47 7.746 7.752 7.746ZM314 135.683a7.749 7.749 0 0 0 7.752-7.746c0-4.277-3.47-7.745-7.752-7.745s-7.752 3.468-7.752 7.745a7.749 7.749 0 0 0 7.752 7.746ZM102.571 156.808c4.282 0 7.753-3.468 7.753-7.746 0-4.277-3.471-7.745-7.753-7.745-4.281 0-7.752 3.468-7.752 7.745 0 4.278 3.47 7.746 7.752 7.746ZM314 156.808a7.749 7.749 0 0 0 7.752-7.746c0-4.277-3.47-7.745-7.752-7.745s-7.752 3.468-7.752 7.745a7.749 7.749 0 0 0 7.752 7.746ZM123.714 135.683c4.282 0 7.753-3.468 7.753-7.746 0-4.277-3.471-7.745-7.753-7.745-4.281 0-7.752 3.468-7.752 7.745 0 4.278 3.471 7.746 7.752 7.746ZM335.143 135.683c4.281 0 7.752-3.468 7.752-7.746 0-4.277-3.471-7.745-7.752-7.745-4.282 0-7.752 3.468-7.752 7.745a7.749 7.749 0 0 0 7.752 7.746ZM123.714 114.558c4.282 0 7.753-3.468 7.753-7.746 0-4.277-3.471-7.745-7.753-7.745-4.281 0-7.752 3.468-7.752 7.745 0 4.278 3.471 7.746 7.752 7.746ZM335.143 114.558c4.281 0 7.752-3.468 7.752-7.746 0-4.277-3.471-7.745-7.752-7.745-4.282 0-7.752 3.468-7.752 7.745a7.749 7.749 0 0 0 7.752 7.746ZM123.714 156.808c4.282 0 7.753-3.468 7.753-7.746 0-4.277-3.471-7.745-7.753-7.745-4.281 0-7.752 3.468-7.752 7.745 0 4.278 3.471 7.746 7.752 7.746ZM335.143 156.808c4.281 0 7.752-3.468 7.752-7.746 0-4.277-3.471-7.745-7.752-7.745-4.282 0-7.752 3.468-7.752 7.745a7.749 7.749 0 0 0 7.752 7.746ZM123.714 177.933c4.282 0 7.753-3.468 7.753-7.746 0-4.277-3.471-7.745-7.753-7.745-4.281 0-7.752 3.468-7.752 7.745 0 4.278 3.471 7.746 7.752 7.746ZM335.143 177.933c4.281 0 7.752-3.468 7.752-7.746 0-4.277-3.471-7.745-7.752-7.745-4.282 0-7.752 3.468-7.752 7.745a7.749 7.749 0 0 0 7.752 7.746ZM144.857 135.683a7.749 7.749 0 0 0 7.752-7.746c0-4.277-3.47-7.745-7.752-7.745-4.281 0-7.752 3.468-7.752 7.745 0 4.278 3.471 7.746 7.752 7.746ZM356.286 135.683c4.281 0 7.752-3.468 7.752-7.746 0-4.277-3.471-7.745-7.752-7.745-4.282 0-7.753 3.468-7.753 7.745 0 4.278 3.471 7.746 7.753 7.746ZM144.857 114.558a7.749 7.749 0 0 0 7.752-7.746c0-4.277-3.47-7.745-7.752-7.745-4.281 0-7.752 3.468-7.752 7.745 0 4.278 3.471 7.746 7.752 7.746ZM356.286 114.558c4.281 0 7.752-3.468 7.752-7.746 0-4.277-3.471-7.745-7.752-7.745-4.282 0-7.753 3.468-7.753 7.745 0 4.278 3.471 7.746 7.753 7.746ZM144.857 156.808a7.749 7.749 0 0 0 7.752-7.746c0-4.277-3.47-7.745-7.752-7.745-4.281 0-7.752 3.468-7.752 7.745 0 4.278 3.471 7.746 7.752 7.746ZM356.286 156.808c4.281 0 7.752-3.468 7.752-7.746 0-4.277-3.471-7.745-7.752-7.745-4.282 0-7.753 3.468-7.753 7.745 0 4.278 3.471 7.746 7.753 7.746ZM144.857 177.933a7.749 7.749 0 0 0 7.752-7.746c0-4.277-3.47-7.745-7.752-7.745-4.281 0-7.752 3.468-7.752 7.745 0 4.278 3.471 7.746 7.752 7.746ZM356.286 177.933c4.281 0 7.752-3.468 7.752-7.746 0-4.277-3.471-7.745-7.752-7.745-4.282 0-7.753 3.468-7.753 7.745 0 4.278 3.471 7.746 7.753 7.746ZM166 135.683a7.749 7.749 0 0 0 7.752-7.746c0-4.277-3.47-7.745-7.752-7.745s-7.752 3.468-7.752 7.745a7.749 7.749 0 0 0 7.752 7.746ZM377.429 135.683c4.281 0 7.752-3.468 7.752-7.746 0-4.277-3.471-7.745-7.752-7.745-4.282 0-7.753 3.468-7.753 7.745 0 4.278 3.471 7.746 7.753 7.746ZM166 156.808a7.749 7.749 0 0 0 7.752-7.746c0-4.277-3.47-7.745-7.752-7.745s-7.752 3.468-7.752 7.745a7.749 7.749 0 0 0 7.752 7.746ZM377.429 156.808c4.281 0 7.752-3.468 7.752-7.746 0-4.277-3.471-7.745-7.752-7.745-4.282 0-7.753 3.468-7.753 7.745 0 4.278 3.471 7.746 7.753 7.746ZM208.286 199.058c4.281 0 7.752-3.468 7.752-7.746 0-4.277-3.471-7.745-7.752-7.745-4.282 0-7.753 3.468-7.753 7.745 0 4.278 3.471 7.746 7.753 7.746ZM229.429 220.183c4.281 0 7.752-3.468 7.752-7.746 0-4.277-3.471-7.745-7.752-7.745-4.282 0-7.753 3.468-7.753 7.745 0 4.278 3.471 7.746 7.753 7.746ZM250.571 220.183c4.282 0 7.753-3.468 7.753-7.746 0-4.277-3.471-7.745-7.753-7.745-4.281 0-7.752 3.468-7.752 7.745 0 4.278 3.471 7.746 7.752 7.746ZM271.714 199.058c4.282 0 7.753-3.468 7.753-7.746 0-4.277-3.471-7.745-7.753-7.745-4.281 0-7.752 3.468-7.752 7.745 0 4.278 3.471 7.746 7.752 7.746Z"/></g><defs><clipPath id="a"><path fill="#fff" d="M92 54h296v169H92z"/></clipPath></defs></svg>
