<svg xmlns="http://www.w3.org/2000/svg" width="480" height="300" fill="none"><g clip-path="url(#a)"><path fill="#000" d="M0 0h480v300H0z"/><path stroke="#fff" stroke-width="2" d="M54.768 113.992c2.765 6.925 10.712 8.655 17.719 8.655h134.742m-152.46-8.655c-.976-2.442-1.47-6.973-.825-10.304 1.978-10.222 41.48-100.155 60.984-143.844 3.864-8.656 11.538-13.19 19.779-13.19h430.188c7.417 0 20.603 5.77 23.488 13.19 2.884 7.419 55.15 135.816 56.864 140.959.824 2.473 1.648 11.54.412 14.013m-590.89-.824c5.006 10.991 16.564 32.313 23.486 36.27 8.654 4.946 65.517 30.912 91.065 34.209 25.548 3.298 64.281-3.322 95.185 7.832 39.97 14.425 46.975 53.58 84.06 53.58 33.377 0 52.331-44.925 75.819-53.58 33.406-12.311 58.924-3.71 86.944-4.534 28.02-.825 62.497-13.53 74.582-18.135 17.307-6.595 28.844-11.541 39.97-20.608 7.417-6.045 15.114-23.081 19.779-34.21m0 0c-4.121 5.771-6.593 7.831-18.131 7.831H490.313m-283.084 0h283.084m-283.084 0c8.181 2.54 26.789 5.465 43.266 13.802m239.818-13.802c-9.826 2.145-27.786 7.323-43.678 14.945m-196.14-1.143c7.593 3.841 14.732 8.831 20.191 15.462 8.42 10.226 16.157 27.476 27.196 42.495m-47.387-57.957c14.697-.891 44.75-2.673 47.387-2.673 3.297 0 8.241 2.473 7.005 7.419-.26 1.039-.865 2.769-1.655 4.946m-5.35 48.265c11.652 15.853 26.985 29.221 50.683 29.221 23.386 0 37.249-13.441 47.916-29.221m-98.599 0c-.824-2.625-2.555-9.852-2.884-17.766-.212-5.091 2.087-13.023 4.536-20.195m147.101-18.853c-8.543 4.097-16.489 8.9-22.251 14.319-10.163 9.555-17.519 27.134-27.903 42.495m50.154-56.814c-13.049-1.272-40.794-3.816-47.387-3.816-8.241 0-10.713 3.709-9.477 7.419.265.795.814 2.575 1.509 4.946m5.201 48.265c1.119-4.164 1.943-9.935 1.943-17.766 0-7.831-3.084-15.662-4.277-20.195m-90.915-10.304c-3.698-2.886-12.355-1.484-12.355 4.121 0 5.606 4.121 7.419 8.657 6.183m3.698-10.304c-1.035 2.851-2.388 6.469-3.698 10.304m91.746-10.304c2.867-2.473 12.501-1.237 12.501 4.121 0 4.99-3.709 7.007-9.634 6.183m-2.867-10.304a397.66 397.66 0 0 1 2.867 10.304"/><path stroke="#fff" stroke-width="2" d="M382.178 172.107c0 19.934-16.156 36.094-36.085 36.094-19.929 0-36.085-16.16-36.085-36.094 0-19.935 16.156-36.095 36.085-36.095 19.929 0 36.085 16.16 36.085 36.095Z"/><path stroke="#fff" stroke-width="2" d="M374.761 172.107c0 15.837-12.836 28.675-28.668 28.675-15.833 0-28.668-12.838-28.668-28.675 0-15.838 12.835-28.676 28.668-28.676 15.832 0 28.668 12.838 28.668 28.676Z"/><path stroke="#fff" stroke-width="2" d="M362.399 172.107c0 9.008-7.301 16.31-16.306 16.31-9.006 0-16.307-7.302-16.307-16.31 0-9.009 7.301-16.311 16.307-16.311 9.005 0 16.306 7.302 16.306 16.311Z"/><rect width="4.945" height="4.122" x="294.998" y="149.85" fill="#fff" rx="1"/><rect width="4.945" height="4.122" x="393.892" y="149.85" fill="#fff" rx="1"/><path stroke="#fff" stroke-width="2" d="M77.649 114.573 139.984-47.94a2 2 0 0 1 1.867-1.284h416.663a2 2 0 0 1 1.895 1.362l54.694 162.513a2 2 0 0 1-1.896 2.638H79.517a2 2 0 0 1-1.868-2.716Z"/><path stroke="#fff" stroke-opacity=".4" stroke-width="2" d="M0-1h33.277" transform="rotate(-41.507 197.303 -210.57) skewX(-.014)"/><path stroke="#fff" stroke-opacity=".4" stroke-width="2" d="M0-1h61.416" transform="rotate(-41.507 187.594 -186.497) skewX(-.014)"/><path stroke="#fff" stroke-opacity=".4" stroke-width="2" d="M0-1h33.277" transform="rotate(-41.507 164.367 -198.1) skewX(-.014)"/></g><defs><clipPath id="a"><path fill="#fff" d="M0 0h480v300H0z"/></clipPath></defs></svg>
