<svg xmlns="http://www.w3.org/2000/svg" width="480" height="300" fill="none"><g clip-path="url(#a)"><path fill="#000" d="M0 0h480v300H0z"/><path fill="#FBCA6C" d="M95.034 114.708c0-23.7 0-35.55 4.612-44.602a42.317 42.317 0 0 1 18.494-18.494C127.192 47 139.042 47 162.742 47h155.516c23.7 0 35.549 0 44.602 4.612a42.319 42.319 0 0 1 18.493 18.494c4.612 9.052 4.612 20.902 4.612 44.602V576.21c0 23.7 0 35.549-4.612 44.602a42.32 42.32 0 0 1-18.493 18.493c-9.053 4.612-20.902 4.612-44.602 4.612H162.742c-23.7 0-35.55 0-44.602-4.612a42.319 42.319 0 0 1-18.493-18.493c-4.613-9.053-4.613-20.902-4.613-44.602V114.708Z"/><path fill="#fff" d="M95.034 114.708c0-23.7 0-35.55 4.612-44.602a42.317 42.317 0 0 1 18.494-18.494C127.192 47 139.042 47 162.742 47h155.516c23.7 0 35.549 0 44.602 4.612a42.319 42.319 0 0 1 18.493 18.494c4.612 9.052 4.612 20.902 4.612 44.602V576.21c0 23.7 0 35.549-4.612 44.602a42.32 42.32 0 0 1-18.493 18.493c-9.053 4.612-20.902 4.612-44.602 4.612H162.742c-23.7 0-35.55 0-44.602-4.612a42.319 42.319 0 0 1-18.493-18.493c-4.613-9.053-4.613-20.902-4.613-44.602V114.708Z"/><path fill="#000" stroke="url(#b)" stroke-width=".5" d="M161.44 50.505h158.12c11.057 0 19.334 0 25.903.537 6.566.537 11.403 1.608 15.584 3.738a39.22 39.22 0 0 1 17.139 17.14c2.13 4.18 3.201 9.017 3.738 15.583.537 6.569.537 14.846.537 25.903v464.106c0 11.056 0 19.334-.537 25.903-.537 6.566-1.608 11.403-3.738 15.583a39.22 39.22 0 0 1-17.139 17.14c-4.181 2.13-9.018 3.201-15.584 3.737-6.569.537-14.846.537-25.903.537H161.44c-11.056 0-19.333 0-25.902-.537-6.566-.536-11.404-1.607-15.584-3.737a39.214 39.214 0 0 1-17.139-17.14c-2.13-4.18-3.202-9.017-3.738-15.583-.537-6.569-.537-14.847-.537-25.903V113.406c0-11.057 0-19.334.537-25.903.536-6.566 1.608-11.403 3.738-15.584a39.215 39.215 0 0 1 17.139-17.139c4.18-2.13 9.018-3.201 15.584-3.738 6.569-.536 14.846-.537 25.902-.537Z"/><rect width="113" height="113" x="184" y="135" fill="#fff" rx="22"/><path fill="#000" fill-rule="evenodd" d="M227.268 222.84c0-1.461-.114-2.684.054-3.863.072-.503.661-1.042 1.141-1.346 2.342-1.481 4.886-2.663 7.066-4.362 7.063-5.502 11.249-12.745 11.478-22.154.065-2.672-.921-3.339-3.173-2.299-6.5 3.005-13.49 1.243-17.22-4.34-4.068-6.09-3.495-14.198 1.379-19.518 6.226-6.794 16.47-6.998 23.535-.509 4.231 3.887 6.242 8.906 6.744 14.615 1.681 19.126-7.946 34.89-25.466 41.815-1.734.685-3.512 1.247-5.538 1.961Z" clip-rule="evenodd"/><g filter="url(#c)"><path fill="#fff" d="M93 142.214c0-.45.364-.814.814-.814h1.22V165h-1.22a.814.814 0 0 1-.814-.814v-21.972Z"/></g><g filter="url(#d)"><path fill="#fff" d="M93 184.938c0-.45.364-.814.814-.814h1.22v45.572h-1.22a.813.813 0 0 1-.814-.813v-43.945Z"/></g><g filter="url(#e)"><path fill="#fff" d="M385.965 200.4h1.221c.449 0 .814.364.814.814v69.172c0 .45-.365.814-.814.814h-1.221v-70.8Z"/></g><g filter="url(#f)"><path fill="#fff" d="M93 240.682c0-.449.364-.814.814-.814h1.22v45.573h-1.22a.814.814 0 0 1-.814-.814v-43.945Z"/></g><path stroke="#fff" d="M109.775 105.919c0-7.757.001-13.544.375-18.133.375-4.583 1.12-7.926 2.586-10.803a27.167 27.167 0 0 1 11.874-11.874c2.877-1.465 6.22-2.211 10.803-2.585 4.589-.375 10.376-.376 18.132-.376h13.6c.717 0 .943.008 1.109.068.313.114.56.36.674.674.06.166.068.392.068 1.11v.144c0 5.251 0 8.026.815 10.266a13.522 13.522 0 0 0 8.081 8.081c2.241.816 5.015.816 10.266.816H292.84c5.251 0 8.026 0 10.266-.816a13.52 13.52 0 0 0 8.081-8.08c.816-2.241.816-5.016.816-10.267V64c0-.717.007-.943.068-1.109.114-.313.36-.56.674-.674.166-.06.392-.068 1.109-.068h13.599c7.756 0 13.544 0 18.132.375 4.583.375 7.927 1.12 10.804 2.586a27.17 27.17 0 0 1 11.873 11.874c1.466 2.877 2.212 6.22 2.586 10.803.375 4.59.375 10.376.375 18.133v479.08c0 7.756 0 13.543-.375 18.132-.374 4.583-1.12 7.926-2.586 10.803a27.169 27.169 0 0 1-11.873 11.874c-2.877 1.466-6.221 2.211-10.804 2.586-4.588.375-10.376.375-18.132.375H153.545c-7.756 0-13.543 0-18.132-.375-4.583-.375-7.926-1.12-10.803-2.586a27.166 27.166 0 0 1-11.874-11.874c-1.466-2.877-2.211-6.22-2.586-10.803-.374-4.589-.375-10.376-.375-18.132v-479.08Z"/><path stroke="#fff" d="M227.683 67.031h26.041a2.348 2.348 0 0 1 0 4.697h-26.041a2.349 2.349 0 1 1 0-4.697ZM268.78 74.576a5.197 5.197 0 1 1 0-10.394 5.197 5.197 0 0 1 0 10.394Z"/></g><defs><filter id="c" width="2.034" height="27.6" x="93" y="139.4" color-interpolation-filters="sRGB" filterUnits="userSpaceOnUse"><feFlood flood-opacity="0" result="BackgroundImageFix"/><feBlend in="SourceGraphic" in2="BackgroundImageFix" result="shape"/><feColorMatrix in="SourceAlpha" result="hardAlpha" values="0 0 0 0 0 0 0 0 0 0 0 0 0 0 0 0 0 0 127 0"/><feOffset dy="4"/><feGaussianBlur stdDeviation="1"/><feComposite in2="hardAlpha" k2="-1" k3="1" operator="arithmetic"/><feColorMatrix values="0 0 0 0 1 0 0 0 0 1 0 0 0 0 1 0 0 0 0.08 0"/><feBlend in2="shape" result="effect1_innerShadow_1660_1568"/><feColorMatrix in="SourceAlpha" result="hardAlpha" values="0 0 0 0 0 0 0 0 0 0 0 0 0 0 0 0 0 0 127 0"/><feOffset dy="-4"/><feGaussianBlur stdDeviation="1"/><feComposite in2="hardAlpha" k2="-1" k3="1" operator="arithmetic"/><feColorMatrix values="0 0 0 0 1 0 0 0 0 1 0 0 0 0 1 0 0 0 0.08 0"/><feBlend in2="effect1_innerShadow_1660_1568" result="effect2_innerShadow_1660_1568"/><feColorMatrix in="SourceAlpha" result="hardAlpha" values="0 0 0 0 0 0 0 0 0 0 0 0 0 0 0 0 0 0 127 0"/><feOffset dy="1"/><feGaussianBlur stdDeviation=".5"/><feComposite in2="hardAlpha" k2="-1" k3="1" operator="arithmetic"/><feColorMatrix values="0 0 0 0 1 0 0 0 0 1 0 0 0 0 1 0 0 0 0.32 0"/><feBlend in2="effect2_innerShadow_1660_1568" result="effect3_innerShadow_1660_1568"/><feColorMatrix in="SourceAlpha" result="hardAlpha" values="0 0 0 0 0 0 0 0 0 0 0 0 0 0 0 0 0 0 127 0"/><feOffset dy="-1"/><feGaussianBlur stdDeviation=".5"/><feComposite in2="hardAlpha" k2="-1" k3="1" operator="arithmetic"/><feColorMatrix values="0 0 0 0 1 0 0 0 0 1 0 0 0 0 1 0 0 0 0.32 0"/><feBlend in2="effect3_innerShadow_1660_1568" result="effect4_innerShadow_1660_1568"/></filter><filter id="d" width="2.034" height="49.572" x="93" y="182.124" color-interpolation-filters="sRGB" filterUnits="userSpaceOnUse"><feFlood flood-opacity="0" result="BackgroundImageFix"/><feBlend in="SourceGraphic" in2="BackgroundImageFix" result="shape"/><feColorMatrix in="SourceAlpha" result="hardAlpha" values="0 0 0 0 0 0 0 0 0 0 0 0 0 0 0 0 0 0 127 0"/><feOffset dy="4"/><feGaussianBlur stdDeviation="1"/><feComposite in2="hardAlpha" k2="-1" k3="1" operator="arithmetic"/><feColorMatrix values="0 0 0 0 1 0 0 0 0 1 0 0 0 0 1 0 0 0 0.08 0"/><feBlend in2="shape" result="effect1_innerShadow_1660_1568"/><feColorMatrix in="SourceAlpha" result="hardAlpha" values="0 0 0 0 0 0 0 0 0 0 0 0 0 0 0 0 0 0 127 0"/><feOffset dy="-4"/><feGaussianBlur stdDeviation="1"/><feComposite in2="hardAlpha" k2="-1" k3="1" operator="arithmetic"/><feColorMatrix values="0 0 0 0 1 0 0 0 0 1 0 0 0 0 1 0 0 0 0.08 0"/><feBlend in2="effect1_innerShadow_1660_1568" result="effect2_innerShadow_1660_1568"/><feColorMatrix in="SourceAlpha" result="hardAlpha" values="0 0 0 0 0 0 0 0 0 0 0 0 0 0 0 0 0 0 127 0"/><feOffset dy="1"/><feGaussianBlur stdDeviation=".5"/><feComposite in2="hardAlpha" k2="-1" k3="1" operator="arithmetic"/><feColorMatrix values="0 0 0 0 1 0 0 0 0 1 0 0 0 0 1 0 0 0 0.32 0"/><feBlend in2="effect2_innerShadow_1660_1568" result="effect3_innerShadow_1660_1568"/><feColorMatrix in="SourceAlpha" result="hardAlpha" values="0 0 0 0 0 0 0 0 0 0 0 0 0 0 0 0 0 0 127 0"/><feOffset dy="-1"/><feGaussianBlur stdDeviation=".5"/><feComposite in2="hardAlpha" k2="-1" k3="1" operator="arithmetic"/><feColorMatrix values="0 0 0 0 1 0 0 0 0 1 0 0 0 0 1 0 0 0 0.32 0"/><feBlend in2="effect3_innerShadow_1660_1568" result="effect4_innerShadow_1660_1568"/></filter><filter id="e" width="2.034" height="74.8" x="385.965" y="198.4" color-interpolation-filters="sRGB" filterUnits="userSpaceOnUse"><feFlood flood-opacity="0" result="BackgroundImageFix"/><feBlend in="SourceGraphic" in2="BackgroundImageFix" result="shape"/><feColorMatrix in="SourceAlpha" result="hardAlpha" values="0 0 0 0 0 0 0 0 0 0 0 0 0 0 0 0 0 0 127 0"/><feOffset dy="4"/><feGaussianBlur stdDeviation="1"/><feComposite in2="hardAlpha" k2="-1" k3="1" operator="arithmetic"/><feColorMatrix values="0 0 0 0 1 0 0 0 0 1 0 0 0 0 1 0 0 0 0.08 0"/><feBlend in2="shape" result="effect1_innerShadow_1660_1568"/><feColorMatrix in="SourceAlpha" result="hardAlpha" values="0 0 0 0 0 0 0 0 0 0 0 0 0 0 0 0 0 0 127 0"/><feOffset dy="-4"/><feGaussianBlur stdDeviation="1"/><feComposite in2="hardAlpha" k2="-1" k3="1" operator="arithmetic"/><feColorMatrix values="0 0 0 0 1 0 0 0 0 1 0 0 0 0 1 0 0 0 0.08 0"/><feBlend in2="effect1_innerShadow_1660_1568" result="effect2_innerShadow_1660_1568"/><feColorMatrix in="SourceAlpha" result="hardAlpha" values="0 0 0 0 0 0 0 0 0 0 0 0 0 0 0 0 0 0 127 0"/><feOffset dy="1"/><feGaussianBlur stdDeviation=".5"/><feComposite in2="hardAlpha" k2="-1" k3="1" operator="arithmetic"/><feColorMatrix values="0 0 0 0 1 0 0 0 0 1 0 0 0 0 1 0 0 0 0.32 0"/><feBlend in2="effect2_innerShadow_1660_1568" result="effect3_innerShadow_1660_1568"/><feColorMatrix in="SourceAlpha" result="hardAlpha" values="0 0 0 0 0 0 0 0 0 0 0 0 0 0 0 0 0 0 127 0"/><feOffset dy="-1"/><feGaussianBlur stdDeviation=".5"/><feComposite in2="hardAlpha" k2="-1" k3="1" operator="arithmetic"/><feColorMatrix values="0 0 0 0 1 0 0 0 0 1 0 0 0 0 1 0 0 0 0.32 0"/><feBlend in2="effect3_innerShadow_1660_1568" result="effect4_innerShadow_1660_1568"/></filter><filter id="f" width="2.034" height="49.572" x="93" y="237.868" color-interpolation-filters="sRGB" filterUnits="userSpaceOnUse"><feFlood flood-opacity="0" result="BackgroundImageFix"/><feBlend in="SourceGraphic" in2="BackgroundImageFix" result="shape"/><feColorMatrix in="SourceAlpha" result="hardAlpha" values="0 0 0 0 0 0 0 0 0 0 0 0 0 0 0 0 0 0 127 0"/><feOffset dy="4"/><feGaussianBlur stdDeviation="1"/><feComposite in2="hardAlpha" k2="-1" k3="1" operator="arithmetic"/><feColorMatrix values="0 0 0 0 1 0 0 0 0 1 0 0 0 0 1 0 0 0 0.08 0"/><feBlend in2="shape" result="effect1_innerShadow_1660_1568"/><feColorMatrix in="SourceAlpha" result="hardAlpha" values="0 0 0 0 0 0 0 0 0 0 0 0 0 0 0 0 0 0 127 0"/><feOffset dy="-4"/><feGaussianBlur stdDeviation="1"/><feComposite in2="hardAlpha" k2="-1" k3="1" operator="arithmetic"/><feColorMatrix values="0 0 0 0 1 0 0 0 0 1 0 0 0 0 1 0 0 0 0.08 0"/><feBlend in2="effect1_innerShadow_1660_1568" result="effect2_innerShadow_1660_1568"/><feColorMatrix in="SourceAlpha" result="hardAlpha" values="0 0 0 0 0 0 0 0 0 0 0 0 0 0 0 0 0 0 127 0"/><feOffset dy="1"/><feGaussianBlur stdDeviation=".5"/><feComposite in2="hardAlpha" k2="-1" k3="1" operator="arithmetic"/><feColorMatrix values="0 0 0 0 1 0 0 0 0 1 0 0 0 0 1 0 0 0 0.32 0"/><feBlend in2="effect2_innerShadow_1660_1568" result="effect3_innerShadow_1660_1568"/><feColorMatrix in="SourceAlpha" result="hardAlpha" values="0 0 0 0 0 0 0 0 0 0 0 0 0 0 0 0 0 0 127 0"/><feOffset dy="-1"/><feGaussianBlur stdDeviation=".5"/><feComposite in2="hardAlpha" k2="-1" k3="1" operator="arithmetic"/><feColorMatrix values="0 0 0 0 1 0 0 0 0 1 0 0 0 0 1 0 0 0 0.32 0"/><feBlend in2="effect3_innerShadow_1660_1568" result="effect4_innerShadow_1660_1568"/></filter><linearGradient id="b" x1="116.469" x2="360.533" y1="57.801" y2="625.781" gradientUnits="userSpaceOnUse"><stop stop-color="#fff" stop-opacity=".16"/><stop offset="1" stop-color="#fff" stop-opacity=".05"/></linearGradient><clipPath id="a"><path fill="#fff" d="M0 0h480v300H0z"/></clipPath></defs></svg>
