<svg xmlns="http://www.w3.org/2000/svg" width="480" height="300" fill="none"><g clip-path="url(#a)"><path fill="#000" d="M0 0h480v300H0z"/><path stroke="#fff" stroke-width="12" d="M54-39h525v285H54z"/><path fill="#fff" fill-opacity=".2" d="M228.128 141C275.667 160.8 416 242.5 416 242.5H215.5s37.718-81.7-8.5-101.5h21.128Z"/><path fill="#fff" d="M117.675 240.62a.5.5 0 1 0 .65.76l-.65-.76Zm77.635-78.942.439.238-.439-.238Zm-53.684-38.176-.498-.041-.081.997.499.04.08-.996ZM118.325 241.38c12.768-10.9 28.373-23.857 42.651-37.531 14.274-13.669 27.26-28.09 34.773-41.933l-.879-.477c-7.436 13.702-20.329 28.035-34.585 41.688-14.252 13.648-29.826 26.58-42.61 37.493l.65.76Zm77.424-79.464c3.843-7.08 3.409-13.02.247-17.923-3.131-4.854-8.891-8.622-15.555-11.528-13.342-5.816-30.604-8.301-38.815-8.963l-.08.996c8.168.66 25.302 3.133 38.495 8.884 6.603 2.879 12.144 6.547 15.115 11.153 2.939 4.558 3.406 10.104-.286 16.904l.879.477ZM504.773 241.446a.5.5 0 0 0 .454-.892l-.454.892Zm-177.471-79.719.171-.47-.171.47Zm-105.233-30.222-.496-.069-.137.991.495.068.138-.99ZM505 241c.227-.446.226-.446.225-.446l-.003-.002-.014-.007-.055-.028a66.68 66.68 0 0 0-.219-.111l-.861-.436c-.758-.383-1.881-.948-3.336-1.677a2041.893 2041.893 0 0 0-12.487-6.198 2537.428 2537.428 0 0 0-43.102-20.704c-34.834-16.326-79.275-36.152-117.675-50.134l-.342.94c38.358 13.966 82.766 33.777 117.592 50.1a2532.358 2532.358 0 0 1 43.085 20.695c5.33 2.624 9.572 4.738 12.481 6.195a1452.852 1452.852 0 0 1 4.411 2.222l.055.027a.059.059 0 0 0 .014.007l.003.002c.001.001.001.001.228-.445Zm-177.527-79.743c-33.582-12.227-59.926-19.664-77.877-24.045-8.976-2.19-15.854-3.617-20.49-4.496a216.705 216.705 0 0 0-5.254-.935c-.589-.096-1.034-.165-1.332-.21l-.337-.05a4.47 4.47 0 0 1-.085-.012l-.022-.003-.005-.001h-.002L222 132l-.068.495h.001l.005.001a.178.178 0 0 0 .02.003l.082.012.33.049c.294.044.735.112 1.321.208 1.17.192 2.92.493 5.229.931 4.619.876 11.48 2.298 20.439 4.484 17.917 4.373 44.225 11.799 77.772 24.014l.342-.94Z"/><path fill="#fff" d="M77.677 240.618a.5.5 0 0 0 .646.764l-.646-.764Zm108.195-86.211.425.263-.425-.263Zm-44.3-30.905-.499-.04-.079.997.498.039.08-.996Zm-63.25 117.88c12.886-10.89 35.505-25.565 57.131-41.041 10.8-7.729 21.341-15.651 30.262-23.381 8.914-7.725 16.24-15.284 20.582-22.29l-.85-.527c-4.261 6.876-11.495 14.355-20.387 22.061-8.886 7.7-19.398 15.601-30.189 23.324-21.556 15.426-44.27 30.167-57.194 41.09l.646.764Zm107.975-86.712c1.5-2.419 2.196-4.731 2.203-6.926.007-2.197-.677-4.241-1.879-6.124-2.391-3.748-6.848-6.886-12.115-9.44-10.547-5.114-24.617-8.014-32.934-8.678l-.08.996c8.228.658 22.17 3.536 32.578 8.582 5.21 2.526 9.466 5.564 11.708 9.078 1.115 1.747 1.728 3.606 1.722 5.583-.006 1.977-.632 4.109-2.053 6.402l.85.527Z"/><path fill="#fff" d="M94.677 240.619a.5.5 0 1 0 .646.762l-.646-.762Zm94.72-81.585-.432-.252.432.252Zm-48.149-35.532-.498-.04-.08.996.498.04.08-.996ZM95.323 241.381c12.868-10.903 32.457-24.579 50.897-38.987 18.391-14.37 35.632-29.462 43.609-43.108l-.864-.504c-7.866 13.456-24.951 28.44-43.361 42.824-18.362 14.346-38.051 28.102-50.927 39.013l.646.762Zm94.506-82.095c3.559-6.089 3.337-11.366.657-15.837-2.652-4.422-7.669-7.987-13.562-10.811-11.798-5.654-27.388-8.473-35.676-9.136l-.08.996c8.216.659 23.675 3.459 35.324 9.042 5.83 2.794 10.635 6.253 13.136 10.424 2.472 4.123 2.733 9.008-.663 14.818l.864.504ZM215.117 112h-21.636c-.37 0-.733.102-1.048.296l-2.274 1.398a1.998 1.998 0 0 0-.798.932l-1.734 4.145-2.246-1.38a1.275 1.275 0 0 0-1.445 2.099l1.708 1.313-1.322 1.354v12.865h3.966s.392-2.052 1.322-2.031c1.064.023.038 1.824.661 2.708.478.677 5.949 0 5.949 0l1.322-3.386h9.255v2.032h4.627v-2.032h5.949v2.709H222v-7.448c0-.677-.661-5.417-1.322-8.126-.459-1.882-2.614-4.922-4.039-6.723a1.93 1.93 0 0 0-1.522-.725Z"/><circle cx="295.5" cy="222.5" r="1.5" fill="#fff"/><circle cx="288.5" cy="206.5" r="1.5" fill="#fff"/><circle cx="277.5" cy="191.5" r="1.5" fill="#fff"/><circle cx="264.5" cy="176.5" r="1.5" fill="#fff"/><circle cx="253.5" cy="165.5" r="1.5" fill="#fff"/><circle cx="241.5" cy="154.5" r="1.5" fill="#fff"/><circle cx="227.5" cy="146.5" r="1.5" fill="#fff"/><path fill="#fff" d="m274.968 54.28-.434.901.01.005.01.004.414-.91Zm-4.032-3.504-.848.53.005.008.843-.538Zm-1.44-5.376v-1h-1v1h1Zm7.2 0h1v-1h-1v1Zm1.152 3.024-.692.722.015.015.016.014.661-.751Zm6.72 0 .676.737-.676-.737Zm-.048-8.928-.692.722.015.015.016.014.661-.751Zm-7.44-1.104h-1v1h1v-1Zm0-6.192-.662-.75-.338.3v.45h1Zm7.056-6.24.662.75 1.978-1.75h-2.64v1Zm-12.96 0h-1v1h1v-1Zm0-6v-1h-1v1h1Zm20.304 0h1v-1h-1v1Zm0 6.192.662.75.338-.299v-.451h-1Zm-10.272 9.072h-1v2.217l1.662-1.468-.662-.749Zm0-2.928v-1h-1v1h1Zm8.544 2.736-.659.752.005.005.654-.757Zm1.728 15.744-.848-.53-.003.005.851.525Zm-4.032 3.504.414.91.007-.003.006-.003-.427-.904Zm-6.24.2c-2.291 0-4.224-.382-5.826-1.11l-.828 1.82c1.918.872 4.145 1.29 6.654 1.29v-2Zm-5.806-1.101c-1.574-.758-2.771-1.805-3.623-3.141l-1.686 1.076c1.068 1.672 2.559 2.96 4.441 3.867l.868-1.802Zm-3.618-3.133c-.848-1.357-1.288-2.96-1.288-4.846h-2c0 2.21.52 4.191 1.592 5.906l1.696-1.06Zm-2.288-3.846h7.2v-2h-7.2v2Zm6.2-1c0 1.493.456 2.784 1.46 3.746l1.384-1.444c-.532-.51-.844-1.235-.844-2.302h-2Zm1.491 3.775c1.039.913 2.424 1.305 4.021 1.305v-2c-1.283 0-2.138-.312-2.699-.807l-1.322 1.502Zm4.021 1.305c1.619 0 3.019-.387 4.036-1.319l-1.352-1.474c-.519.476-1.359.793-2.684.793v2Zm4.036-1.319c1.025-.94 1.476-2.246 1.476-3.761h-2c0 1.11-.317 1.819-.828 2.287l1.352 1.474Zm1.476-3.761v-2.88h-2v2.88h2Zm0-2.88c0-1.527-.475-2.838-1.539-3.775l-1.322 1.502c.536.471.861 1.176.861 2.273h2Zm-1.508-3.746c-1.012-.97-2.399-1.382-4.004-1.382v2c1.275 0 2.096.324 2.62.826l1.384-1.444Zm-4.004-1.382h-4.128v2h4.128v-2Zm-3.128 1V32.2h-2v6.192h2Zm-.338-5.443 7.056-6.24-1.324-1.498-7.056 6.24 1.324 1.498Zm6.394-7.989h-12.96v2h12.96v-2Zm-11.96 1v-6h-2v6h2Zm-1-5h20.304v-2h-20.304v2Zm19.304-1v6.192h2V19.96h-2Zm.338 5.442-10.272 9.072 1.324 1.5 10.272-9.072-1.324-1.5Zm-8.61 9.822v-2.928h-2v2.928h2Zm-1-1.928c3.449 0 6.037.868 7.885 2.488l1.318-1.504c-2.312-2.028-5.42-2.984-9.203-2.984v2Zm7.89 2.493c1.864 1.61 2.822 3.797 2.822 6.683h2c0-3.386-1.154-6.158-3.514-8.197l-1.308 1.514Zm2.822 6.683V45.4h2v-2.928h-2Zm0 2.928c0 1.886-.44 3.489-1.288 4.846l1.696 1.06c1.072-1.715 1.592-3.696 1.592-5.906h-2Zm-1.291 4.85c-.816 1.324-2.005 2.368-3.608 3.126l.854 1.808c1.917-.906 3.416-2.198 4.456-3.883l-1.702-1.05Zm-3.595 3.12c-1.602.728-3.535 1.11-5.826 1.11v2c2.509 0 4.736-.418 6.654-1.29l-.828-1.82Zm14.795-.482-.645.764.645-.764Zm-3.168-7.008v-1h-1.022l.022 1.022 1-.022Zm7.2 0 .998-.06-.057-.94h-.941v1Zm1.2 2.496-.637.771.011.008.01.008.616-.787Zm6.288-.192.691.723.001-.001-.692-.722Zm.048-9.408-.691.723.008.008.009.008.674-.739Zm-5.52-.672.346.938.013-.004.013-.005-.372-.929Zm-1.44 1.056v1h.507l.3-.409-.807-.591Zm-6.96 0-1-.012-.012 1.012h1.012v-1Zm.24-19.2v-1h-.987l-.013.988 1 .012Zm20.688 0h1v-1h-1v1Zm0 6.48v1h1v-1h-1Zm-13.92 0v-1h-.989l-.011.99 1 .01Zm-.096 9.12-1-.01-.01 1.01h1.01v-1Zm1.488 0 .616.788 2.289-1.788h-2.905v1Zm-1.536 1.2h-1v2.05l1.616-1.262-.616-.788Zm1.68-3.456.597.803.003-.003-.6-.8Zm11.28 1.296-.74.672.006.007.007.007.727-.686Zm-.672 18.144.665.747.007-.006-.672-.741Zm-8.496 1.736c-3.324 0-5.84-.821-7.659-2.356l-1.29 1.528c2.277 1.921 5.298 2.828 8.949 2.828v-2Zm-7.659-2.356c-1.805-1.524-2.755-3.577-2.813-6.266l-2 .044c.07 3.199 1.233 5.818 3.523 7.75l1.29-1.528Zm-3.813-5.244h7.2v-2h-7.2v2Zm6.202-.94c.079 1.3.587 2.402 1.561 3.207l1.274-1.542c-.498-.411-.789-.973-.839-1.785l-1.996.12Zm1.582 3.224c.971.76 2.241 1.076 3.688 1.076v-2c-1.177 0-1.954-.26-2.455-.651l-1.233 1.575Zm3.688 1.076c1.566 0 2.924-.393 3.907-1.333l-1.382-1.446c-.488.468-1.275.779-2.525.779v2Zm3.908-1.334c1.004-.962 1.46-2.253 1.46-3.746h-2c0 1.067-.312 1.792-.844 2.302l1.384 1.444Zm1.46-3.746v-3.408h-2v3.408h2Zm0-3.408c0-1.5-.426-2.798-1.429-3.715l-1.349 1.477c.468.428.778 1.113.778 2.238h2Zm-1.413-3.699c-.987-.944-2.364-1.333-3.955-1.333v2c1.29 0 2.088.315 2.573.779l1.382-1.446Zm-3.955-1.333c-.96 0-1.843.142-2.627.456l.743 1.856c.496-.198 1.116-.312 1.884-.312v-2Zm-2.601.446c-.776.285-1.423.75-1.901 1.403l1.613 1.182c.225-.307.538-.546.979-.709l-.691-1.876Zm-1.095.994h-6.96v2h6.96v-2Zm-5.96 1.013.24-19.2-2-.025-.24 19.2 2 .024Zm-.76-18.213h20.688v-2h-20.688v2Zm19.688-1v6.48h2v-6.48h-2Zm1 5.48h-13.92v2h13.92v-2Zm-14.92.99-.096 9.12 2 .02.096-9.12-2-.02Zm.904 10.13h1.488v-2h-1.488v2Zm.873-1.788-1.536 1.2 1.231 1.576 1.536-1.2-1.231-1.576Zm.079 1.988c0-1.176.426-2.022 1.277-2.653l-1.193-1.606c-1.39 1.033-2.084 2.491-2.084 4.259h2Zm1.28-2.656c.927-.695 2.245-1.096 4.056-1.096v-2c-2.092 0-3.878.463-5.256 1.496l1.2 1.6Zm4.056-1.096c2.633 0 4.546.79 5.884 2.264l1.481-1.344c-1.799-1.982-4.302-2.92-7.365-2.92v2Zm5.897 2.278c1.375 1.458 2.127 3.566 2.127 6.466h2c0-3.244-.847-5.904-2.672-7.838l-1.455 1.372Zm2.127 6.466v3.408h2v-3.408h-2Zm0 3.408c0 2.967-.938 5.207-2.743 6.843l1.343 1.482c2.291-2.076 3.4-4.892 3.4-8.325h-2Zm-2.737 6.837c-1.813 1.615-4.38 2.483-7.831 2.483v2c3.782 0 6.878-.956 9.161-2.99l-1.33-1.493ZM277.357 77V64.9h2.244v1.628h.462l-.374.396c0-.675.191-1.217.572-1.628.381-.41.873-.616 1.474-.616.645 0 1.144.264 1.496.792.367.528.55 1.24.55 2.134l-.484-1.078h.748l-.286.396c0-.675.191-1.217.572-1.628.381-.41.887-.616 1.518-.616.748 0 1.342.279 1.782.836.44.557.66 1.313.66 2.266V77h-2.42v-9.108c0-.396-.088-.704-.264-.924-.176-.235-.433-.352-.77-.352-.323 0-.579.11-.77.33-.176.22-.264.535-.264.946V77h-1.98v-9.108c0-.41-.088-.726-.264-.946-.176-.22-.433-.33-.77-.33s-.594.11-.77.33c-.161.22-.242.535-.242.946V77h-2.42Zm13.741 3.96V64.9h2.684v2.31h.616l-.616.638c0-.983.294-1.753.88-2.31.587-.572 1.379-.858 2.376-.858 1.218 0 2.193.418 2.926 1.254.734.836 1.1 1.958 1.1 3.366v3.278c0 .939-.168 1.76-.506 2.464-.322.69-.784 1.225-1.386 1.606-.601.381-1.312.572-2.134.572-.997 0-1.789-.279-2.376-.836-.586-.572-.88-1.35-.88-2.332l.616.638h-.638l.088 2.882v3.388h-2.75Zm4.972-6.116c.704 0 1.254-.205 1.65-.616.396-.41.594-.997.594-1.76v-3.036c0-.763-.198-1.35-.594-1.76-.396-.41-.946-.616-1.65-.616-.689 0-1.232.213-1.628.638-.396.41-.594.99-.594 1.738v3.036c0 .748.198 1.335.594 1.76.396.41.939.616 1.628.616ZM304.29 77V60.94h2.75v3.96l-.066 2.31h.748l-.748.638c0-.997.286-1.775.858-2.332.586-.557 1.386-.836 2.398-.836 1.188 0 2.134.396 2.838 1.188.718.792 1.078 1.855 1.078 3.19V77h-2.75v-7.656c0-.733-.191-1.298-.572-1.694-.382-.396-.917-.594-1.606-.594-.675 0-1.21.205-1.606.616-.382.41-.572.997-.572 1.76V77h-2.75Z"/></g><defs><clipPath id="a"><path fill="#fff" d="M0 0h480v300H0z"/></clipPath></defs></svg>
