<svg xmlns="http://www.w3.org/2000/svg" width="480" height="300" fill="none"><g clip-path="url(#a)"><path fill="#000" d="M0 0h480v300H0z"/><path fill="#fff" stroke="#fff" d="M361.5 99.5h3v14h-3zM361.5 115.5h3v12h-3zM368.5 70.5h3v14h-3zM368.5 86.5h3v27h-3zM368.5 115.5h3v12h-3zM375.5 57.5h3v27h-3zM375.5 86.5h3v27h-3zM375.5 115.5h3v12h-3zM382.5 49.5h3v6h-3zM382.5 57.5h3v27h-3zM382.5 86.5h3v27h-3zM382.5 115.5h3v12h-3zM389.5 115.5h3v12h-3zM389.5 86.5h3v27h-3zM389.5 57.5h3v27h-3zM389.5 44.5h3v11h-3zM396.5 115.5h3v12h-3zM396.5 86.5h3v27h-3zM396.5 57.5h3v27h-3zM396.5 39.5h3v16h-3zM403.5 115.5h3v12h-3zM403.5 86.5h3v27h-3zM403.5 57.5h3v27h-3zM403.5 43.5h3v12h-3zM410.5 115.5h3v12h-3zM410.5 86.5h3v27h-3zM410.5 57.5h3v27h-3zM410.5 49.5h3v6h-3zM417.5 115.5h3v12h-3zM417.5 86.5h3v27h-3zM417.5 57.5h3v27h-3zM417.5 51.5h3v4h-3zM424.5 115.5h3v12h-3zM424.5 86.5h3v27h-3zM424.5 57.5h3v27h-3zM431.5 115.5h3v12h-3zM431.5 86.5h3v27h-3zM431.5 61.5h3v23h-3zM438.5 115.5h3v12h-3zM438.5 86.5h3v27h-3zM438.5 66.5h3v18h-3zM445.5 115.5h3v12h-3zM445.5 86.5h3v27h-3zM445.5 70.5h3v14h-3zM452.5 115.5h3v12h-3zM452.5 86.5h3v27h-3zM452.5 77.5h3v7h-3zM459.5 115.5h3v12h-3zM459.5 86.5h3v27h-3zM466.5 115.5h3v12h-3zM466.5 91.5h3v22h-3z"/><path fill="#fff" d="M345 84h11v5h-11zM345 112h11v6h-11zM380 131h8v4h-8zM415 131h8v4h-8zM450 131h8v4h-8zM345 55h11v5h-11z"/><path stroke="#fff" stroke-width="12" d="M54-39h525v285H54z"/><path stroke="#fff" stroke-dasharray="4 4" stroke-linecap="square" d="M413 240s-137.333-79.2-184.872-99H207c46.218 19.8 9.243 99 9.243 99"/><path fill="#fff" d="M117.675 240.62a.5.5 0 1 0 .65.76l-.65-.76Zm77.635-78.942.439.238-.439-.238Zm-53.684-38.176-.498-.041-.081.997.499.04.08-.996ZM118.325 241.38c12.768-10.9 28.373-23.857 42.651-37.531 14.274-13.669 27.26-28.09 34.773-41.933l-.879-.477c-7.436 13.702-20.329 28.035-34.585 41.688-14.252 13.648-29.826 26.58-42.61 37.493l.65.76Zm77.424-79.464c3.843-7.08 3.409-13.02.247-17.923-3.131-4.854-8.891-8.622-15.555-11.528-13.342-5.816-30.604-8.301-38.815-8.963l-.08.996c8.168.66 25.302 3.133 38.495 8.884 6.603 2.879 12.144 6.547 15.115 11.153 2.939 4.558 3.406 10.104-.286 16.904l.879.477ZM504.773 241.446a.5.5 0 0 0 .454-.892l-.454.892Zm-177.471-79.719.171-.47-.171.47Zm-105.233-30.222-.496-.069-.137.991.495.068.138-.99ZM505 241c.227-.446.226-.446.225-.446l-.003-.002-.014-.007-.055-.028a66.68 66.68 0 0 0-.219-.111l-.861-.436c-.758-.383-1.881-.948-3.336-1.677a2041.893 2041.893 0 0 0-12.487-6.198 2537.428 2537.428 0 0 0-43.102-20.704c-34.834-16.326-79.275-36.152-117.675-50.134l-.342.94c38.358 13.966 82.766 33.777 117.592 50.1a2532.358 2532.358 0 0 1 43.085 20.695c5.33 2.624 9.572 4.738 12.481 6.195a1452.852 1452.852 0 0 1 4.411 2.222l.055.027a.059.059 0 0 0 .014.007l.003.002c.001.001.001.001.228-.445Zm-177.527-79.743c-33.582-12.227-59.926-19.664-77.877-24.045-8.976-2.19-15.854-3.617-20.49-4.496a216.705 216.705 0 0 0-5.254-.935c-.589-.096-1.034-.165-1.332-.21l-.337-.05a4.47 4.47 0 0 1-.085-.012l-.022-.003-.005-.001h-.002L222 132l-.068.495h.001l.005.001a.178.178 0 0 0 .02.003l.082.012.33.049c.294.044.735.112 1.321.208 1.17.192 2.92.493 5.229.931 4.619.876 11.48 2.298 20.439 4.484 17.917 4.373 44.225 11.799 77.772 24.014l.342-.94Z"/><path fill="#fff" d="M77.677 240.618a.5.5 0 0 0 .646.764l-.646-.764Zm108.195-86.211.425.263-.425-.263Zm-44.3-30.905-.499-.04-.079.997.498.039.08-.996Zm-63.25 117.88c12.886-10.89 35.505-25.565 57.131-41.041 10.8-7.729 21.341-15.651 30.262-23.381 8.914-7.725 16.24-15.284 20.582-22.29l-.85-.527c-4.261 6.876-11.495 14.355-20.387 22.061-8.886 7.7-19.398 15.601-30.189 23.324-21.556 15.426-44.27 30.167-57.194 41.09l.646.764Zm107.975-86.712c1.5-2.419 2.196-4.731 2.203-6.926.007-2.197-.677-4.241-1.879-6.124-2.391-3.748-6.848-6.886-12.115-9.44-10.547-5.114-24.617-8.014-32.934-8.678l-.08.996c8.228.658 22.17 3.536 32.578 8.582 5.21 2.526 9.466 5.564 11.708 9.078 1.115 1.747 1.728 3.606 1.722 5.583-.006 1.977-.632 4.109-2.053 6.402l.85.527Z"/><path fill="#fff" d="M94.677 240.619a.5.5 0 1 0 .646.762l-.646-.762Zm94.72-81.585-.432-.252.432.252Zm-48.149-35.532-.498-.04-.08.996.498.04.08-.996ZM95.323 241.381c12.868-10.903 32.457-24.579 50.897-38.987 18.391-14.37 35.632-29.462 43.609-43.108l-.864-.504c-7.866 13.456-24.951 28.44-43.361 42.824-18.362 14.346-38.051 28.102-50.927 39.013l.646.762Zm94.506-82.095c3.559-6.089 3.337-11.366.657-15.837-2.652-4.422-7.669-7.987-13.562-10.811-11.798-5.654-27.388-8.473-35.676-9.136l-.08.996c8.216.659 23.675 3.459 35.324 9.042 5.83 2.794 10.635 6.253 13.136 10.424 2.472 4.123 2.733 9.008-.663 14.818l.864.504ZM215.117 112h-21.636c-.37 0-.733.102-1.048.296l-2.274 1.398a1.998 1.998 0 0 0-.798.932l-1.734 4.145-2.246-1.38a1.275 1.275 0 0 0-1.445 2.099l1.708 1.313-1.322 1.354v12.865h3.966s.392-2.052 1.322-2.031c1.064.023.038 1.824.661 2.708.478.677 5.949 0 5.949 0l1.322-3.386h9.255v2.032h4.627v-2.032h5.949v2.709H222v-7.448c0-.677-.661-5.417-1.322-8.126-.459-1.882-2.614-4.922-4.039-6.723a1.93 1.93 0 0 0-1.522-.725Z"/><circle cx="295.5" cy="222.5" r="1.5" fill="#fff"/><circle cx="288.5" cy="206.5" r="1.5" fill="#fff"/><circle cx="277.5" cy="191.5" r="1.5" fill="#fff"/><circle cx="264.5" cy="176.5" r="1.5" fill="#fff"/><circle cx="253.5" cy="165.5" r="1.5" fill="#fff"/><circle cx="241.5" cy="154.5" r="1.5" fill="#fff"/><circle cx="227.5" cy="146.5" r="1.5" fill="#fff"/><path stroke="#fff" stroke-linecap="square" d="m225 128 70.164-71H345M249 147l61.151-61H345M269 172l57-57h19"/></g><defs><clipPath id="a"><path fill="#fff" d="M0 0h480v300H0z"/></clipPath></defs></svg>
