<svg xmlns="http://www.w3.org/2000/svg" width="480" height="300" fill="none"><path fill="#000" d="M0 0h480v300H0z"/><path fill="#414141" fill-rule="evenodd" d="M268 186.148a488.796 488.796 0 0 0-27.69-.772c-13.788 0-27.021.558-39.31 1.584v.311c11.988-1.217 25.298-1.895 39.313-1.895 9.629 0 18.924.32 27.687.915v-.143Zm26 2.935c25.199 3.854 41.743 10.345 41.743 17.703 0 11.824-42.725 21.41-95.43 21.41-52.704 0-95.43-9.586-95.43-21.41 0-6.156 11.579-11.704 30.117-15.61v-1.141c-31.361 4.944-52 13.346-52 22.881 0 15.21 52.521 27.54 117.31 27.54s117.31-12.33 117.31-27.54c0-10.668-25.836-19.919-63.62-24.493v.66Z" clip-rule="evenodd"/><g clip-path="url(#a)"><path fill="#fff" d="M155.117 101.188a15.937 15.937 0 0 1 15.937-15.938h95.625a15.939 15.939 0 0 1 15.938 15.938v15.937h10.837a15.944 15.944 0 0 1 12.432 5.982l15.735 19.656a15.941 15.941 0 0 1 3.496 9.966v22.833a15.938 15.938 0 0 1-15.938 15.938h-5.312a21.25 21.25 0 0 1-42.5 0h-53.125a21.242 21.242 0 0 1-6.368 15.215 21.253 21.253 0 0 1-30.395-.647 21.25 21.25 0 0 1-5.716-15.471 15.937 15.937 0 0 1-10.646-15.035v-74.374Zm13.749 79.22a21.231 21.231 0 0 1 18.397-10.167 21.238 21.238 0 0 1 18.131 10.634h58.82a21.36 21.36 0 0 1 7.778-7.778v-71.909a5.314 5.314 0 0 0-5.313-5.313h-95.625a5.31 5.31 0 0 0-5.312 5.313v74.374a5.315 5.315 0 0 0 3.124 4.846Zm113.751-10.158a21.253 21.253 0 0 1 18.402 10.625h8.16a5.314 5.314 0 0 0 5.313-5.313v-22.843a5.307 5.307 0 0 0-1.169-3.315l-15.725-19.656a5.31 5.31 0 0 0-4.144-1.998h-10.837v42.5Zm-95.625 10.625a10.622 10.622 0 0 0-10.625 10.625 10.624 10.624 0 1 0 10.625-10.625Zm95.625 0a10.622 10.622 0 0 0-10.625 10.625 10.624 10.624 0 1 0 10.625-10.625Z"/></g><defs><clipPath id="a"><path fill="#fff" d="M155.117 64h170v170h-170z"/></clipPath></defs></svg>
