<svg xmlns="http://www.w3.org/2000/svg" width="480" height="300" fill="none"><path fill="#000" d="M0 0h480v300H0z"/><path stroke="#fff" stroke-width="15" d="m158 117 21.105 100h121.79L322 117H158Z" clip-rule="evenodd"/><path fill="#fff" d="M292.965 121.285a8.417 8.417 0 1 0 11.903-11.903l-11.903 11.903Zm-21.764-45.57-5.951-5.951-11.903 11.903 5.952 5.951 11.902-11.903Zm33.667 33.667-33.667-33.667-11.902 11.903 33.666 33.667 11.903-11.903ZM187.035 121.285a8.417 8.417 0 1 1-11.903-11.903l11.903 11.903Zm21.764-45.57 5.951-5.951 11.903 11.903-5.951 5.951-11.903-11.903Zm-33.667 33.667 33.667-33.667 11.903 11.903-33.667 33.667-11.903-11.903Z"/><path fill="#414141" fill-rule="evenodd" d="M311.062 205.249c15.338 3.799 24.681 8.839 24.681 14.369 0 11.824-42.725 21.41-95.43 21.41-52.704 0-95.43-9.586-95.43-21.41 0-5.46 9.109-10.442 24.102-14.224l-.306-1.458C140.895 208.972 123 216.869 123 225.748c0 15.209 52.521 27.54 117.31 27.54s117.31-12.331 117.31-27.54c0-8.94-18.145-16.885-46.26-21.916l-.298 1.417Z" clip-rule="evenodd"/></svg>
