<svg width="48" height="48" viewBox="0 0 48 48" fill="none" xmlns="http://www.w3.org/2000/svg">
  <path d="M33 24C33 29.4013 31.9032 34.2418 30.1766 37.6949C28.4201 41.2079 26.1786 43 24 43C21.8214 43 19.5799 41.2079 17.8234 37.6949C16.0968 34.2418 15 29.4013 15 24C15 18.5987 16.0968 13.7582 17.8234 10.3051C19.5799 6.79209 21.8214 5 24 5C26.1786 5 28.4201 6.79209 30.1766 10.3051C31.9032 13.7582 33 18.5987 33 24Z" stroke="currentColor" stroke-width="2"/>
  <circle cx="24" cy="24" r="19" stroke="currentColor" stroke-width="2"/>
  <path d="M24 15C29.4013 15 34.2418 16.0968 37.6949 17.8234C41.2079 19.5799 43 21.8214 43 24C43 26.1786 41.2079 28.4201 37.6949 30.1766C34.2418 31.9032 29.4013 33 24 33C18.5987 33 13.7582 31.9032 10.3051 30.1766C6.79209 28.4201 5 26.1786 5 24C5 21.8214 6.79209 19.5799 10.3051 17.8234C13.7582 16.0968 18.5987 15 24 15Z" stroke="currentColor" stroke-width="2"/>
  <path d="M12 19H36V29H14L12 28.0909V19Z" fill="black"/>
  <path d="M16.496 28C15.9911 28 15.5502 27.9076 15.1733 27.7227C14.8036 27.5378 14.5156 27.2782 14.3093 26.944C14.1031 26.6098 14 26.2151 14 25.76H15.344C15.344 26.1084 15.4436 26.3822 15.6427 26.5813C15.8489 26.7733 16.1369 26.8693 16.5067 26.8693C16.8764 26.8693 17.1609 26.7698 17.36 26.5707C17.5591 26.3716 17.6587 26.1013 17.6587 25.76V25.152C17.6587 24.8036 17.5591 24.5333 17.36 24.3413C17.1609 24.1422 16.8764 24.0427 16.5067 24.0427H15.632V22.8373L17.3493 21.248H14.352V20.1067H18.704V21.312L16.5067 23.328V22.9013C17.2747 22.9013 17.8827 23.104 18.3307 23.5093C18.7787 23.9147 19.0027 24.4622 19.0027 25.152V25.76C19.0027 26.2151 18.8996 26.6098 18.6933 26.944C18.4871 27.2782 18.1956 27.5378 17.8187 27.7227C17.4418 27.9076 17.0009 28 16.496 28Z" fill="white"/>
  <path d="M22.9665 28C22.4474 28 21.9887 27.8933 21.5905 27.68C21.1994 27.4596 20.8936 27.1538 20.6732 26.7627C20.4598 26.3644 20.3532 25.9058 20.3532 25.3867C20.3532 25.0169 20.4136 24.6293 20.5345 24.224C20.6625 23.8187 20.8367 23.4382 21.0572 23.0827L22.8918 20.1067H24.3745L22.0705 23.7333L22.1345 23.776C22.2767 23.5556 22.4687 23.3884 22.7105 23.2747C22.9523 23.1609 23.2225 23.104 23.5212 23.104C23.9407 23.104 24.3034 23.2036 24.6092 23.4027C24.9149 23.6018 25.1532 23.8791 25.3238 24.2347C25.4945 24.5902 25.5798 25.0062 25.5798 25.4827C25.5798 25.9876 25.4696 26.4284 25.2492 26.8053C25.0358 27.1822 24.7336 27.4773 24.3425 27.6907C23.9585 27.8969 23.4998 28 22.9665 28ZM22.9665 26.8693C23.3576 26.8693 23.6741 26.7449 23.9158 26.496C24.1576 26.24 24.2785 25.9093 24.2785 25.504C24.2785 25.0844 24.1576 24.7502 23.9158 24.5013C23.6741 24.2453 23.3576 24.1173 22.9665 24.1173C22.5754 24.1173 22.2589 24.2453 22.0172 24.5013C21.7754 24.7502 21.6545 25.0844 21.6545 25.504C21.6545 25.9093 21.7754 26.24 22.0172 26.496C22.2589 26.7449 22.5754 26.8693 22.9665 26.8693Z" fill="white"/>
  <path d="M29.3623 28C28.8646 28 28.4343 27.9076 28.0717 27.7227C27.709 27.5307 27.4281 27.264 27.229 26.9227C27.0299 26.5742 26.9303 26.1653 26.9303 25.696V22.304C26.9303 21.8347 27.0299 21.4293 27.229 21.088C27.4281 20.7396 27.709 20.4729 28.0717 20.288C28.4343 20.096 28.8646 20 29.3623 20C29.8672 20 30.2974 20.096 30.653 20.288C31.0157 20.4729 31.2966 20.7396 31.4957 21.088C31.6948 21.4293 31.7943 21.8311 31.7943 22.2933V25.696C31.7943 26.1653 31.6948 26.5742 31.4957 26.9227C31.2966 27.264 31.0157 27.5307 30.653 27.7227C30.2974 27.9076 29.8672 28 29.3623 28ZM29.3623 26.8693C29.725 26.8693 30.0059 26.7662 30.205 26.56C30.4112 26.3538 30.5143 26.0658 30.5143 25.696V22.304C30.5143 21.9342 30.4112 21.6462 30.205 21.44C30.0059 21.2338 29.725 21.1307 29.3623 21.1307C28.9997 21.1307 28.7152 21.2338 28.509 21.44C28.3099 21.6462 28.2103 21.9342 28.2103 22.304V25.696C28.2103 26.0658 28.3134 26.3538 28.5197 26.56C28.7259 26.7662 29.0068 26.8693 29.3623 26.8693ZM27.1117 25.9307L30.717 22.0693H31.613L28.0077 25.9307H27.1117Z" fill="white"/>
  <path d="M34.8693 23.0933C34.3928 23.0933 34.0053 22.9511 33.7066 22.6667C33.4151 22.3822 33.2693 22.0089 33.2693 21.5467C33.2693 21.0844 33.4151 20.7111 33.7066 20.4267C34.0053 20.1422 34.3928 20 34.8693 20C35.3528 20 35.7404 20.1422 36.0319 20.4267C36.3235 20.7111 36.4693 21.0844 36.4693 21.5467C36.4693 22.0089 36.3235 22.3822 36.0319 22.6667C35.7404 22.9511 35.3528 23.0933 34.8693 23.0933ZM34.8586 22.464C35.1217 22.464 35.3315 22.3787 35.4879 22.208C35.6515 22.0373 35.7333 21.8169 35.7333 21.5467C35.7333 21.2693 35.6515 21.0489 35.4879 20.8853C35.3315 20.7147 35.1253 20.6293 34.8693 20.6293C34.6062 20.6293 34.3964 20.7147 34.2399 20.8853C34.0835 21.0489 34.0053 21.2693 34.0053 21.5467C34.0053 21.8169 34.0835 22.0373 34.2399 22.208C34.3964 22.3787 34.6026 22.464 34.8586 22.464Z" fill="white"/>
</svg>
