<svg width="48" height="48" viewBox="0 0 48 48" fill="none" xmlns="http://www.w3.org/2000/svg"><path d="M35 11L32 5H16L13 11M35 11H13M35 11V14M13 11V14M35 17V20H34M35 17H13M35 17V14M13 17V20H14M13 17V14M14 20V23H17V20M14 20H17M17 20H31M34 20V23H31V20M34 20H31M35 14H32M13 14H16M20 14H28" stroke="CurrentColor" stroke-width="2"></path><path d="M7.81502 44L9.71111 41H38.2901L40.1854 44H7.81502Z" stroke="CurrentColor" stroke-width="2"></path><path d="M12.2357 37L14.1294 34H33.8741L35.7655 37H12.2357Z" stroke="CurrentColor" stroke-width="2"></path><path d="M16.6576 30L18.5513 27H29.4493L31.3468 30H16.6576Z" stroke="CurrentColor" stroke-width="2"></path></svg>
