<svg width="48" height="48" viewBox="0 0 48 48" fill="none" xmlns="http://www.w3.org/2000/svg">
<path fill-rule="evenodd" clip-rule="evenodd" d="M45 16H3V44H45V16ZM43 18H5V42H43V18Z" fill="black"/>
<path d="M17.0953 37.1989C15.9874 37.1989 15.0049 37.0095 14.1479 36.6307C13.2956 36.2472 12.6233 35.7192 12.1309 35.0469C11.6384 34.3745 11.3875 33.6004 11.378 32.7244H14.915C14.9292 33.0417 15.031 33.3234 15.2203 33.5696C15.4097 33.8111 15.6678 34.0005 15.9945 34.1378C16.3212 34.2751 16.6929 34.3438 17.1096 34.3438C17.5262 34.3438 17.8932 34.2704 18.2104 34.1236C18.5324 33.9721 18.7833 33.7661 18.9632 33.5057C19.1432 33.2405 19.2308 32.9375 19.226 32.5966C19.2308 32.2557 19.1337 31.9527 18.9348 31.6875C18.736 31.4223 18.4542 31.2164 18.0897 31.0696C17.7298 30.9228 17.3037 30.8494 16.8113 30.8494H15.3979V28.3494H16.8113C17.2421 28.3494 17.6209 28.2784 17.9476 28.1364C18.2791 27.9943 18.5371 27.7955 18.7218 27.5398C18.9064 27.2794 18.9964 26.9811 18.9917 26.6449C18.9964 26.3182 18.9183 26.0317 18.7573 25.7855C18.601 25.5346 18.3809 25.3404 18.0968 25.2031C17.8174 25.0658 17.4931 24.9972 17.1238 24.9972C16.7355 24.9972 16.3828 25.0658 16.0655 25.2031C15.753 25.3404 15.5044 25.5346 15.3198 25.7855C15.1351 26.0365 15.0381 26.3277 15.0286 26.6591H11.6692C11.6787 25.7926 11.9202 25.0303 12.3936 24.3722C12.8671 23.7093 13.5111 23.1908 14.3255 22.8168C15.1446 22.4427 16.0774 22.2557 17.1238 22.2557C18.1654 22.2557 19.0816 22.438 19.8723 22.8026C20.6631 23.1671 21.2786 23.6643 21.7189 24.294C22.1593 24.919 22.3794 25.6269 22.3794 26.4176C22.3842 27.2367 22.1167 27.9115 21.5769 28.4418C21.0418 28.9721 20.3529 29.2988 19.5101 29.4219V29.5355C20.637 29.6681 21.4869 30.0327 22.0598 30.6293C22.6375 31.2259 22.9239 31.9716 22.9192 32.8665C22.9192 33.7093 22.6706 34.4574 22.1735 35.1108C21.681 35.7595 20.9945 36.2708 20.1138 36.6449C19.2379 37.0142 18.2317 37.1989 17.0953 37.1989ZM30.4181 37.3551C29.1492 37.3551 28.0555 37.0545 27.1369 36.4531C26.2183 35.8471 25.5105 34.9782 25.0133 33.8466C24.5162 32.7102 24.2699 31.3442 24.2747 29.7486C24.2794 28.1529 24.528 26.7988 25.0204 25.6861C25.5176 24.5687 26.2231 23.7187 27.1369 23.1364C28.0555 22.5492 29.1492 22.2557 30.4181 22.2557C31.6871 22.2557 32.7808 22.5492 33.6994 23.1364C34.6227 23.7187 35.3329 24.5687 35.8301 25.6861C36.3272 26.8035 36.5734 28.1577 36.5687 29.7486C36.5687 31.349 36.3201 32.7173 35.823 33.8537C35.3258 34.9901 34.618 35.8589 33.6994 36.4602C32.7856 37.0568 31.6918 37.3551 30.4181 37.3551ZM30.4181 34.4787C31.1757 34.4787 31.7889 34.0928 32.2576 33.321C32.7264 32.5445 32.9584 31.3537 32.9537 29.7486C32.9537 28.6974 32.8471 27.831 32.6341 27.1491C32.421 26.4626 32.1251 25.9512 31.7463 25.6151C31.3675 25.2789 30.9248 25.1108 30.4181 25.1108C29.6653 25.1108 29.0569 25.492 28.5929 26.2543C28.1288 27.0118 27.8945 28.1766 27.8897 29.7486C27.885 30.8139 27.9868 31.697 28.1951 32.3977C28.4082 33.0985 28.7065 33.6217 29.09 33.9673C29.4735 34.3082 29.9163 34.4787 30.4181 34.4787Z" fill="black"/>
<rect x="4" y="8" width="40" height="9" stroke="black" stroke-width="2"/>
<rect x="13" y="4" width="2" height="8" fill="black"/>
<rect x="33" y="4" width="2" height="8" fill="black"/>
</svg>
