<svg width="32" height="32" viewBox="0 0 32 32" fill="none" xmlns="http://www.w3.org/2000/svg">
  <path d="M25.2267 6.67998C24.96 5.89331 24.2133 5.33331 23.3333 5.33331H8.66667C7.78667 5.33331 7.05333 5.89331 6.77333 6.67998L4 14.6666V25.3333C4 26.0666 4.6 26.6666 5.33333 26.6666H6.66667C7.4 26.6666 8 26.0666 8 25.3333V24H24V25.3333C24 26.0666 24.6 26.6666 25.3333 26.6666H26.6667C27.4 26.6666 28 26.0666 28 25.3333V14.6666L25.2267 6.67998ZM8.66667 20C7.56 20 6.66667 19.1066 6.66667 18C6.66667 16.8933 7.56 16 8.66667 16C9.77333 16 10.6667 16.8933 10.6667 18C10.6667 19.1066 9.77333 20 8.66667 20ZM23.3333 20C22.2267 20 21.3333 19.1066 21.3333 18C21.3333 16.8933 22.2267 16 23.3333 16C24.44 16 25.3333 16.8933 25.3333 18C25.3333 19.1066 24.44 20 23.3333 20ZM6.66667 13.3333L8.66667 7.33331H23.3333L25.3333 13.3333H6.66667Z" fill="currentColor" />
</svg>
