<svg width="48" height="48" viewBox="0 0 48 48" fill="none" xmlns="http://www.w3.org/2000/svg">
  <mask id="path-1-inside-1_1540_1957" fill="white">
    <path fill-rule="evenodd" clip-rule="evenodd" d="M13 30V34H35L41 39V15H37V30H13Z"></path>
  </mask>
  <path fill-rule="evenodd" clip-rule="evenodd" d="M13 30V34H35L41 39V15H37V30H13Z" fill="CurrentColor"></path>
  <path d="M13 30V28H11V30H13ZM13 34H11V36H13V34ZM35 34L36.2804 32.4636L35.7241 32H35V34ZM41 39L39.7196 40.5364L43 43.2701V39H41ZM41 15H43V13H41V15ZM37 15V13H35V15H37ZM37 30V32H39V30H37ZM11 30V34H15V30H11ZM13 36H35V32H13V36ZM33.7196 35.5364L39.7196 40.5364L42.2804 37.4636L36.2804 32.4636L33.7196 35.5364ZM43 39V15H39V39H43ZM41 13H37V17H41V13ZM35 15V30H39V15H35ZM37 28H13V32H37V28Z" fill="CurrentColor" mask="url(#path-1-inside-1_1540_1957)"></path>
  <mask id="path-3-inside-2_1540_1957" fill="white">
    <path fill-rule="evenodd" clip-rule="evenodd" d="M35 9H7V33L13 28H35V9ZM33 11H9V28.7305L13 26H33V11Z"></path>
  </mask>
  <path fill-rule="evenodd" clip-rule="evenodd" d="M35 9H7V33L13 28H35V9ZM33 11H9V28.7305L13 26H33V11Z" fill="white"></path>
  <path d="M7 9V7H5V9H7ZM35 9H37V7H35V9ZM7 33H5V37.2701L8.28037 34.5364L7 33ZM13 28V26H12.2759L11.7196 26.4636L13 28ZM35 28V30H37V28H35ZM9 11V9H7V11H9ZM33 11H35V9H33V11ZM9 28.7305H7V32.5172L10.1276 30.3823L9 28.7305ZM13 26V24H12.3825L11.8724 24.3482L13 26ZM33 26V28H35V26H33ZM7 11H35V7H7V11ZM9 33V9H5V33H9ZM11.7196 26.4636L5.71963 31.4636L8.28037 34.5364L14.2804 29.5364L11.7196 26.4636ZM35 26H13V30H35V26ZM33 9V28H37V9H33ZM9 13H33V9H9V13ZM11 28.7305V11H7V28.7305H11ZM11.8724 24.3482L7.87243 27.0786L10.1276 30.3823L14.1276 27.6518L11.8724 24.3482ZM33 24H13V28H33V24ZM31 11V26H35V11H31Z" fill="CurrentColor" mask="url(#path-3-inside-2_1540_1957)"></path>
</svg>
