<svg width="48" height="48" viewBox="0 0 48 48" fill="none" xmlns="http://www.w3.org/2000/svg">
<g clip-path="url(#clip0_997_8977)">
<rect width="48" height="48" fill="white"/>
<rect x="9" y="15" width="30" height="18" fill="white" stroke="black" stroke-width="2"/>
<circle cx="24" cy="24" r="5" fill="black" stroke="black" stroke-width="2"/>
<path d="M34 32C34 30.9391 34.4214 29.9217 35.1716 29.1716C35.9217 28.4214 36.9391 28 38 28V32L34 32Z" fill="black"/>
<path d="M10 28C11.0609 28 12.0783 28.4214 12.8284 29.1716C13.5786 29.9217 14 30.9391 14 32L10 32V28Z" fill="black"/>
<path d="M14 16C14 17.0609 13.5786 18.0783 12.8284 18.8284C12.0783 19.5786 11.0609 20 10 20L10 16H14Z" fill="black"/>
<path d="M38 20C36.9391 20 35.9217 19.5786 35.1716 18.8284C34.4214 18.0783 34 17.0609 34 16L38 16L38 20Z" fill="black"/>
<g opacity="0.5">
<rect x="3" y="-9" width="30" height="18" fill="white" stroke="black" stroke-width="2"/>
<circle cx="18" r="5" fill="black" stroke="black" stroke-width="2"/>
<path d="M28 8C28 6.93913 28.4214 5.92172 29.1716 5.17157C29.9217 4.42143 30.9391 4 32 4V8L28 8Z" fill="black"/>
<path d="M4 4C5.06087 4 6.07828 4.42143 6.82843 5.17157C7.57857 5.92172 8 6.93913 8 8L4 8V4Z" fill="black"/>
</g>
<g opacity="0.5">
<rect x="15" y="39" width="30" height="18" fill="white" stroke="black" stroke-width="2"/>
<circle cx="30" cy="48" r="5" fill="black" stroke="black" stroke-width="2"/>
<path d="M20 40C20 41.0609 19.5786 42.0783 18.8284 42.8284C18.0783 43.5786 17.0609 44 16 44L16 40H20Z" fill="black"/>
<path d="M44 44C42.9391 44 41.9217 43.5786 41.1716 42.8284C40.4214 42.0783 40 41.0609 40 40L44 40L44 44Z" fill="black"/>
</g>
<rect width="48" height="18" fill="url(#paint0_linear_997_8977)"/>
<rect width="48" height="18" transform="matrix(1 0 0 -1 0 50)" fill="url(#paint1_linear_997_8977)"/>
</g>
<defs>
<linearGradient id="paint0_linear_997_8977" x1="24" y1="0" x2="24" y2="11.25" gradientUnits="userSpaceOnUse">
<stop stop-color="white"/>
<stop offset="1" stop-color="white" stop-opacity="0"/>
</linearGradient>
<linearGradient id="paint1_linear_997_8977" x1="24" y1="0" x2="24" y2="11.25" gradientUnits="userSpaceOnUse">
<stop stop-color="white"/>
<stop offset="1" stop-color="white" stop-opacity="0"/>
</linearGradient>
<clipPath id="clip0_997_8977">
<rect width="48" height="48" fill="white"/>
</clipPath>
</defs>
</svg>
