<svg width="48" height="48" viewBox="0 0 48 48" fill="none" xmlns="http://www.w3.org/2000/svg">
<path fill-rule="evenodd" clip-rule="evenodd" d="M41 13H1V29C1 32.3137 3.68629 35 7 35H47V19C47 15.6863 44.3137 13 41 13ZM9.70293 28.7759C10.1883 29.0186 10.7576 29.1399 11.4109 29.1399C12.0736 29.1399 12.6429 29.0186 13.1189 28.7759C13.5949 28.5239 13.9589 28.1739 14.2109 27.7259C14.4723 27.2686 14.6029 26.7319 14.6029 26.1159V21.6499C14.6029 21.0432 14.4723 20.5159 14.2109 20.0679C13.9589 19.6106 13.5949 19.2606 13.1189 19.0179C12.6429 18.7659 12.0736 18.6399 11.4109 18.6399C10.7576 18.6399 10.1883 18.7659 9.70293 19.0179C9.22693 19.2606 8.85827 19.6106 8.59693 20.0679C8.34493 20.5159 8.21893 21.0479 8.21893 21.6639V26.1159C8.21893 26.7319 8.34493 27.2686 8.59693 27.7259C8.85827 28.1739 9.22693 28.5239 9.70293 28.7759ZM12.4889 27.2219C12.2463 27.4739 11.8869 27.5999 11.4109 27.5999C10.9443 27.5999 10.5849 27.4739 10.3329 27.2219C10.0903 26.9606 9.96893 26.5919 9.96893 26.1159V21.6639C9.96893 21.1786 10.0903 20.8099 10.3329 20.5579C10.5756 20.3059 10.9349 20.1799 11.4109 20.1799C11.8869 20.1799 12.2463 20.3059 12.4889 20.5579C12.7316 20.8099 12.8529 21.1786 12.8529 21.6639V26.1159C12.8529 26.5919 12.7316 26.9606 12.4889 27.2219ZM17.0475 18.7799V28.9999H23.1375V27.3759H18.7975V18.7799H17.0475ZM25.232 28.9999V18.7799H31.364V20.3059H26.954V22.9659H30.874V24.4779H26.954V27.4739H31.364V28.9999H25.232ZM33.4445 18.7799V28.9999H36.4825C37.1732 28.9999 37.7705 28.8692 38.2745 28.6079C38.7879 28.3372 39.1845 27.9639 39.4645 27.4879C39.7445 27.0026 39.8845 26.4379 39.8845 25.7939V21.9719C39.8845 21.3186 39.7445 20.7539 39.4645 20.2779C39.1845 19.8019 38.7879 19.4332 38.2745 19.1719C37.7705 18.9106 37.1732 18.7799 36.4825 18.7799H33.4445ZM36.4825 27.3899H35.1945V20.3899H36.4825C36.9865 20.3899 37.3879 20.5346 37.6865 20.8239C37.9852 21.1039 38.1345 21.4866 38.1345 21.9719V25.7939C38.1345 26.2886 37.9852 26.6806 37.6865 26.9699C37.3879 27.2499 36.9865 27.3899 36.4825 27.3899Z" fill="currentColor"/>
</svg>
