<svg width="48" height="48" viewBox="0 0 48 48" fill="none" xmlns="http://www.w3.org/2000/svg">
  <path d="M31.987 11.1665C24.627 11.1665 18.667 17.1398 18.667 24.4998C18.667 31.8598 24.627 37.8332 31.987 37.8332C39.3603 37.8332 45.3337 31.8598 45.3337 24.4998C45.3337 17.1398 39.3603 11.1665 31.987 11.1665ZM32.0003 35.1665C26.107 35.1665 21.3337 30.3932 21.3337 24.4998C21.3337 18.6065 26.107 13.8332 32.0003 13.8332C37.8937 13.8332 42.667 18.6065 42.667 24.4998C42.667 30.3932 37.8937 35.1665 32.0003 35.1665Z" fill="CurrentColor"></path>
  <path d="M32.667 17.8335H30.667V25.8335L37.667 30.0335L38.667 28.3935L32.667 24.8335V17.8335Z" fill="CurrentColor"></path>
  <rect x="7.5" y="15.5" width="10" height="2" fill="CurrentColor"></rect>
  <rect x="1.5" y="23.5" width="14" height="2" fill="CurrentColor"></rect>
  <rect x="7.5" y="31.5" width="10" height="2" fill="CurrentColor"></rect>
</svg>
