<svg width="48" height="48" viewBox="0 0 48 48" fill="none" xmlns="http://www.w3.org/2000/svg">
  <circle cx="24" cy="38" r="3" stroke="CurrentColor" stroke-width="2"></circle>
  <path d="M11 35C11 35 18.9232 32 24 32C29.0768 32 37 35 37 35" stroke="CurrentColor" stroke-width="2"></path>
  <path d="M35.9992 38.0003C35.9992 38.0003 31.9995 37.0003 30.4996 39.4999C29.0002 41.9992 32.9994 44.9999 32.9994 44.9999" stroke="CurrentColor" stroke-width="2"></path>
  <path d="M11.9998 38.0003C11.9998 38.0003 15.9995 37.0003 17.4994 39.4999C18.9989 41.9992 14.9996 44.9999 14.9996 44.9999" stroke="CurrentColor" stroke-width="2"></path>
  <path d="M6 27L17 3" stroke="CurrentColor" stroke-width="2"></path>
  <path d="M42 27L31 3" stroke="CurrentColor" stroke-width="2"></path>
  <path d="M24 16V4M24 4L29 9M24 4L19 9" stroke="CurrentColor" stroke-width="2"></path>
  <path fill-rule="evenodd" clip-rule="evenodd" d="M33.798 46C36.3911 43.459 38 39.9174 38 36C38 28.268 31.732 22 24 22C16.268 22 10 28.268 10 36C10 39.9174 11.6089 43.459 14.202 46H11.5093C9.31344 43.2608 8 39.7838 8 36C8 27.1634 15.1634 20 24 20C32.8366 20 40 27.1634 40 36C40 39.7838 38.6866 43.2608 36.4907 46H33.798Z" fill="CurrentColor"></path>
  <path fill-rule="evenodd" clip-rule="evenodd" d="M29.279 45.0398C29.2791 45.0398 29.2792 45.0398 28.9999 46H23.9999H18.9999C18.7206 45.0398 18.7206 45.0398 18.7207 45.0398L18.7209 45.0397L18.7216 45.0395L18.724 45.0388L18.7323 45.0364L18.7634 45.0275C18.7903 45.0197 18.8294 45.0086 18.8794 44.9945C18.9795 44.9663 19.1233 44.9263 19.3004 44.8784C19.6542 44.7828 20.1432 44.655 20.6834 44.527C21.7252 44.28 23.0848 44 23.9999 44C24.9149 44 26.2745 44.28 27.3163 44.527C27.8565 44.655 28.3455 44.7828 28.6993 44.8784C28.8764 44.9263 29.0202 44.9663 29.1203 44.9945C29.1703 45.0086 29.2094 45.0197 29.2363 45.0275L29.2674 45.0364L29.2757 45.0388L29.2781 45.0395L29.2788 45.0397L29.279 45.0398Z" fill="CurrentColor"></path>
</svg>
