<svg width="48" height="48" viewBox="0 0 48 48" fill="none" xmlns="http://www.w3.org/2000/svg">
<path fill-rule="evenodd" clip-rule="evenodd" d="M23.9997 44C35.0456 44 44.0001 35.0455 44.0001 24.0002C44.0001 12.9541 35.0456 4 23.9997 4C12.954 4 4 12.9541 4 24.0002C4 35.0455 12.954 44 23.9997 44ZM33.1114 13.5573C32.3744 14.834 30.7419 15.2714 29.4648 14.5339C28.188 13.7968 27.7507 12.1644 28.4878 10.8877C29.2252 9.61053 30.8576 9.17321 32.1345 9.91033C33.4117 10.6477 33.8488 12.2801 33.1114 13.5573ZM20.7143 31.0743C21.7131 31.5389 22.8258 31.8 24 31.8C28.0749 31.8 31.4175 28.6763 31.7677 24.6918L35.5733 24.7473C35.3862 27.6888 34.1015 30.3301 32.1271 32.2716C31.1118 31.8879 29.9389 31.9459 28.9255 32.531C27.9103 33.1172 27.2735 34.1056 27.0989 35.1781C26.1121 35.4513 25.0738 35.6001 24 35.6001C22.1535 35.6001 20.4087 35.1665 18.8589 34.3991L20.7143 31.0743ZM31.7677 23.3083C31.4175 19.3244 28.0749 16.2 24 16.2C22.8258 16.2 21.7131 16.4611 20.7144 16.9257L18.8592 13.6013C20.4088 12.8336 22.1535 12.4002 24 12.4002C25.0738 12.4002 26.1121 12.5491 27.0988 12.8221C27.2734 13.8947 27.91 14.883 28.9251 15.469C29.9387 16.0542 31.1115 16.1123 32.1266 15.7289C34.1012 17.6702 35.386 20.3115 35.5733 23.2528L31.7677 23.3083ZM19.5167 17.619C17.5115 19.0303 16.2001 21.3611 16.2001 24C16.2001 26.6393 17.5115 28.9701 19.5167 30.3813L17.5645 33.6516C15.2277 32.0903 13.4894 29.7037 12.7675 26.9081C13.611 26.2207 14.15 25.1738 14.15 24.0003C14.15 22.8266 13.6111 21.7797 12.7676 21.0922C13.4896 18.2967 15.228 15.9101 17.5647 14.3488L19.5167 17.619ZM28.4879 37.1123C27.7507 35.8356 28.188 34.2034 29.4652 33.466C30.742 32.7289 32.3745 33.1665 33.1116 34.443C33.849 35.7201 33.4116 37.3525 32.1348 38.0897C30.8576 38.8271 29.2253 38.3895 28.4879 37.1123ZM7.72998 24.0003C7.72998 22.5253 8.92519 21.3302 10.4002 21.3302C11.8747 21.3302 13.07 22.5253 13.07 24.0003C13.07 25.4749 11.8747 26.6701 10.4002 26.6701C8.92519 26.6701 7.72998 25.4749 7.72998 24.0003Z" fill="currentColor"/>
</svg>
