<svg width="32" height="32" viewBox="0 0 32 32" fill="none" xmlns="http://www.w3.org/2000/svg">
  <rect width="32" height="32" fill="black"/>
  <path d="M24.7345 11.957C26.3494 12.863 28.1773 14.4554 27.9862 16.579C27.7657 18.5469 25.9754 19.921 24.3763 20.7481C19.7083 23.0358 13.1508 23.1073 8.33006 21.1078C6.70083 20.4124 4.87293 19.2189 4.18662 17.4226C3.6621 15.9477 4.30176 14.4087 5.37562 13.3861C7.62117 11.2933 10.4846 10.5746 13.4322 10.1607C16.6305 9.76187 19.9966 10.1141 22.8607 11.1209C23.5003 11.3633 24.1325 11.6289 24.7337 11.9562L24.7345 11.957ZM22.0999 11.8945C20.1884 11.3482 18.1777 11.0201 16.045 11.0367C15.0547 11.0517 14.339 11.9961 13.9357 12.8006C13.6309 13.4402 13.281 14.2056 13.5391 14.94C13.6768 15.1816 13.8973 15.3464 14.1411 15.4081C15.1841 15.6421 16.1285 15.22 17.0654 14.9867C18.9084 14.3696 20.7137 13.6668 22.2895 12.4025C22.358 12.3167 22.4799 12.2309 22.419 12.0977C22.3512 11.9803 22.2135 11.957 22.0999 11.8945ZM12.1612 11.5198C12.1078 11.4189 11.9701 11.434 11.8639 11.434C10.8435 11.598 9.87576 11.887 8.94713 12.2467C7.37811 12.9255 5.49678 13.9249 5.03246 15.7987C4.74349 17.2353 5.74812 18.4453 6.86036 19.1949C7.08086 19.2957 7.31715 19.6087 7.56097 19.3747C8.81017 16.6806 10.1271 13.9715 12.1303 11.6372L12.1604 11.5198H12.1612ZM25.4509 13.5817C25.1762 13.3936 24.9324 13.1204 24.59 13.0896C24.5247 13.1128 24.4667 13.1531 24.4222 13.2062C24.0529 14.049 23.6566 14.8797 23.2339 15.6971C22.3128 17.5167 21.2623 19.3122 19.8754 20.9121L19.8528 21.022C19.8679 21.1161 19.9672 21.1003 20.0282 21.1078C21.0027 21.0145 21.902 20.7014 22.793 20.3974C24.4297 19.7412 26.4856 18.711 26.9582 16.7747C27.2479 15.463 26.3946 14.3779 25.4501 13.581L25.4509 13.5817ZM18.5126 17.7191C18.3907 17.391 18.0482 17.1495 17.7051 17.1021C16.8751 16.9929 16.0902 17.227 15.3519 17.4452C13.3728 18.1255 11.3688 18.7727 9.68537 20.1709C9.61011 20.2416 9.55668 20.3417 9.59506 20.4516C9.64355 20.5286 9.71934 20.5845 9.80728 20.6081C11.7087 21.1911 13.6832 21.5013 15.6718 21.5292C16.5786 21.6233 17.3318 20.9987 17.7886 20.2725C18.2003 19.4913 18.6954 18.6876 18.5126 17.7191Z" fill="white"/>
</svg>
