<svg width="32" height="32" viewBox="0 0 32 32" fill="none" xmlns="http://www.w3.org/2000/svg">
  <rect width="32" height="32" fill="black"/>
  <g clip-path="url(#clip0_1832_1653)">
    <path d="M17.9236 18.3321C17.9236 18.3777 17.938 18.4041 17.9644 18.4041C17.986 18.4017 18.0052 18.3921 18.022 18.3801L25.5021 13.5254C25.6285 13.437 25.7799 13.3916 25.9341 13.3958H27.5779C27.8299 13.3958 28.0003 13.5638 28.0003 13.8157V16.9547C28.0003 17.3338 27.9163 17.5546 27.5803 17.7562L25.5861 18.9561C25.5662 18.9699 25.543 18.9782 25.5189 18.9801C25.4949 18.9801 25.4709 18.9609 25.4709 18.8913V15.2292C25.4709 15.186 25.4589 15.1572 25.4301 15.1572C25.409 15.1596 25.3891 15.168 25.3725 15.1812L19.9058 18.7329C19.781 18.8169 19.6346 18.8625 19.4858 18.8601H15.8621C15.6078 18.8601 15.4398 18.6921 15.4398 18.4377V13.9141C15.4398 13.8805 15.4254 13.8493 15.3966 13.8493C15.3756 13.852 15.3557 13.8603 15.339 13.8733L11.7321 16.0379C11.6961 16.0619 11.6865 16.0787 11.6865 16.0955C11.6865 16.1099 11.6937 16.1243 11.7177 16.1507L14.2951 18.7257C14.3287 18.7593 14.3527 18.7857 14.3527 18.8145C14.3527 18.8385 14.3143 18.8577 14.2687 18.8577H11.9409C11.7585 18.8577 11.6169 18.8313 11.5185 18.7329L9.95627 17.173C9.95035 17.166 9.94303 17.1602 9.93477 17.156C9.92652 17.1519 9.9175 17.1495 9.90828 17.149C9.89134 17.1498 9.87485 17.1548 9.86028 17.1634L7.24931 18.7329C7.09093 18.8289 6.98294 18.8553 6.82695 18.8553H4.42476C4.16799 18.8577 4 18.6873 4 18.4353V15.3564C4 14.9748 4.08399 14.7564 4.42236 14.5549L6.42858 13.3502C6.44432 13.3399 6.46258 13.3341 6.48138 13.3334C6.51258 13.3334 6.52938 13.3646 6.52938 13.4342V17.557C6.52938 17.6002 6.53897 17.6194 6.57017 17.6194C6.59177 17.617 6.61097 17.6074 6.63017 17.5954L13.4072 13.5182C13.5368 13.4294 13.6951 13.3862 13.8535 13.3934H17.5012C17.7532 13.3934 17.9236 13.5614 17.9236 13.8133L17.9212 18.3321H17.9236Z" fill="white"/>
    </g>
  <defs>
    <clipPath id="clip0_1832_1653">
      <rect width="24" height="5.65517" fill="white" transform="translate(4 13.3334)"/>
    </clipPath>
  </defs>
</svg>
