<svg width="32" height="32" viewBox="0 0 32 32" fill="none" xmlns="http://www.w3.org/2000/svg">
  <rect width="32" height="32" fill="black"/>
  <path fill-rule="evenodd" clip-rule="evenodd" d="M16.2827 7.96259C16.6606 7.97305 16.6204 8.23858 16.5579 8.33012C15.4428 10.0649 12.8079 13.1194 10.8893 16.4707C10.5717 17.0137 10.3352 17.4132 10.3352 18.0091C10.3352 18.817 10.8395 19.7722 11.8527 20.1821C12.5192 20.4491 12.9388 20.4573 13.6581 20.4677C18.9987 20.6328 21.1397 20.4885 25.9186 20.3264C26.1946 20.3256 26.4512 20.1397 26.5435 20.0273C27.4674 19.064 28 17.3321 28 15.8041C28 12.4008 25.5488 9.33513 21.7251 7.86071L21.1114 8.64775C24.4627 10.0329 26.1946 12.7995 26.1946 15.7625C26.1946 16.4291 26.0815 17.0747 25.8769 17.6914C25.7252 18.1215 25.5384 18.3684 24.9954 18.3766C21.101 18.4599 18.896 18.5209 14.9913 18.4182C14.4876 18.4078 14.3247 18.2241 14.2429 17.8253C14.1804 17.5888 14.2325 17.3924 14.3954 17.0956C16.4664 13.4266 20.0744 9.23319 20.7826 8.23858C20.9172 8.05484 20.854 7.68439 20.392 7.56166C19.0403 7.16216 17.5236 7 15.9859 7C9.02362 7.02826 4.11305 10.9442 4 15.8041C4.27898 21.6379 9.35165 24.6507 15.9859 24.6507C20.0454 24.6507 23.7642 23.2157 25.9401 20.9401L23.9301 21.0212C22.074 22.6719 19.1006 23.5542 16.0253 23.5542C10.4199 23.5542 5.85604 20.7667 5.85604 15.7625C5.85604 11.4583 10.4192 7.95219 16.0253 7.95219L16.2827 7.96259Z" fill="white"/>
</svg>
