<svg width="32" height="32" viewBox="0 0 32 32" fill="none" xmlns="http://www.w3.org/2000/svg">
  <rect width="32" height="32" fill="black"/>
  <path d="M21.3365 8.75638C19.8516 8.28061 18.0034 8 16.0005 8C13.9975 8 12.1493 8.28061 10.6635 8.75638C6.71343 10.0209 4 12.648 4 15.6834C4 19.9537 9.37291 23.4163 16.0005 23.4163C22.6271 23.4163 28 19.9537 28 15.6834C28 12.648 25.2857 10.0218 21.3365 8.75638ZM16.0005 20.0922C15.0111 20.0922 14.2035 18.1549 14.1567 15.7212C15.3834 15.8305 16.6175 15.8305 17.8442 15.7212C17.7965 18.1549 16.9898 20.0922 16.0005 20.0922V20.0922ZM14.2808 13.8154C14.5506 12.1066 15.218 10.8969 16.0005 10.8969C16.782 10.8969 17.4494 12.1075 17.7192 13.8154C16.5754 13.9182 15.4246 13.9182 14.2808 13.8154ZM18.7696 13.6868C18.3685 11.0048 17.2803 9.08286 16.0005 9.08286C14.7206 9.08286 13.6315 11.0048 13.2304 13.6868C10.793 13.3082 9.0887 12.4447 9.0887 11.4401C9.0887 10.0857 12.1835 8.98842 16.0005 8.98842C19.8174 8.98842 22.9113 10.0866 22.9113 11.4401C22.9113 12.4447 21.2079 13.3073 18.7696 13.6868ZM5.75109 15.401C5.75109 14.0915 6.25655 12.8648 7.13974 11.8098C7.1297 11.8831 7.12459 11.957 7.12445 12.031C7.12445 13.6778 9.60765 15.0781 13.0703 15.5926C13.0676 15.7167 13.0658 15.8417 13.0658 15.9676C13.0658 19.03 13.9184 21.6229 15.0975 22.5178C9.85947 22.1976 5.75109 19.1343 5.75109 15.401V15.401ZM16.9043 22.5169C18.0825 21.6229 18.9351 19.0291 18.9351 15.9667C18.9351 15.8408 18.9342 15.7158 18.9306 15.5917C22.3924 15.0772 24.8755 13.6769 24.8755 12.0301C24.8755 11.9564 24.8693 11.8817 24.8594 11.8089C25.7417 12.8648 26.248 14.0915 26.248 15.4001C26.248 19.1343 22.1405 22.1976 16.9043 22.5169" fill="white"/>
</svg>
